
<svg width="229px" height="120px" viewBox="118 180 229 120" version="1.1" xmlns="http://www.w3.org/2000/svg" xmlns:xlink="http://www.w3.org/1999/xlink">
    <!-- Generator: Sketch 41.2 (35397) - http://www.bohemiancoding.com/sketch -->
    <desc>Created with Sketch.</desc>
    <defs>
        <polygon id="path-1" points="0 119.967421 228.186787 119.967421 228.186787 0 0 0"></polygon>
    </defs>
    <g id="Illustration" stroke="none" stroke-width="1" fill="none" fill-rule="evenodd" transform="translate(118.000000, 180.000000)">
        <path d="M8.14479638,76.1918552 C5.44615385,76.1918552 3.25791855,74.0036199 3.25791855,71.3049774 C3.25791855,68.6063348 5.44615385,66.4180995 8.14479638,66.4180995 C10.8434389,66.4180995 13.0316742,68.6063348 13.0316742,71.3049774 C13.0316742,74.0036199 10.8434389,76.1918552 8.14479638,76.1918552 L8.14479638,76.1918552 Z M8.14479638,63.160181 C3.64886878,63.160181 0,66.8090498 0,71.3049774 C0,75.800905 3.64886878,79.4497738 8.14479638,79.4497738 C12.640724,79.4497738 16.2895928,75.800905 16.2895928,71.3049774 C16.2895928,66.8090498 12.640724,63.160181 8.14479638,63.160181 L8.14479638,63.160181 Z M21.4479638,34.9248869 L20.4,32.4271493 L17.918552,31.3954751 L20.4,30.2226244 L21.4479638,27.8660633 L22.4959276,30.2226244 L24.9773756,31.3954751 L22.4959276,32.4271493 L21.4479638,34.9248869 L21.4479638,34.9248869 Z M208.870588,16.1266968 L206.465158,10.4253394 L200.763801,8.06334842 L206.465158,5.37556561 L208.870588,0 L211.270588,5.37556561 L216.971946,8.06334842 L211.270588,10.4253394 L208.870588,16.1266968 L208.870588,16.1266968 Z" id="Fill-1" fill-opacity="0.7" fill="#FFFFFF"></path>
        <mask id="mask-2" fill="white">
            <use xlink:href="#path-1"></use>
        </mask>
        <g id="Clip-4"></g>
        <path d="M109.683258,96.2823529 L118.371041,96.2823529 L118.371041,88.680543 L109.683258,88.680543 L109.683258,96.2823529 Z M90.678733,96.2823529 L99.3665158,96.2823529 L99.3665158,88.680543 L90.678733,88.680543 L90.678733,96.2823529 Z M148.235294,96.2823529 L156.923077,96.2823529 L156.923077,88.680543 L148.235294,88.680543 L148.235294,96.2823529 Z M129.230769,96.2823529 L137.918552,96.2823529 L137.918552,88.680543 L129.230769,88.680543 L129.230769,96.2823529 Z" id="Fill-3" fill-opacity="0.3" fill="#FFFFFF" mask="url(#mask-2)"></path>
        <path d="M80.361991,106.599095 L80.361991,101.169231 L167.20181,101.169231 L168.868778,106.599095 M173.755656,77.2778281 L168.868778,81.9475113 L168.868778,21.3502262 L173.755656,21.3502262" id="Fill-5" fill-opacity="0.3" fill="#FFFFFF" mask="url(#mask-2)"></path>
        <path d="M25.7918552,96.8253394 C27.1411765,96.8253394 28.2352941,97.919457 28.2352941,99.2687783 C28.2352941,100.6181 27.1411765,101.712217 25.7918552,101.712217 C24.4425339,101.712217 23.3484163,100.6181 23.3484163,99.2687783 C23.3484163,97.919457 24.4425339,96.8253394 25.7918552,96.8253394" id="Fill-6" fill-opacity="0.7" fill="#FFFFFF" mask="url(#mask-2)"></path>
        <path d="M83.0769231,101.169231 L78.7330317,101.169231 L78.7330317,38.1828054 L72.2171946,33.838914 L75.4751131,33.838914 C79.6723982,33.838914 83.0769231,37.2434389 83.0769231,41.440724 L83.0769231,101.169231 Z" id="Fill-7" fill-opacity="0.3" fill="#FFFFFF" mask="url(#mask-2)"></path>
        <path d="M58.9140271,38.1828054 C59.6638914,38.1828054 60.2714932,38.7904072 60.2714932,39.5402715 C60.2714932,40.2901357 59.6638914,40.8977376 58.9140271,40.8977376 C58.1641629,40.8977376 57.5565611,40.2901357 57.5565611,39.5402715 C57.5565611,38.7904072 58.1641629,38.1828054 58.9140271,38.1828054" id="Fill-8" fill="#FFFFFF" mask="url(#mask-2)"></path>
        <path d="M166.832579,101.169231 C166.832579,101.169231 163.167421,88.3167421 168.868778,80.8995475 L168.868778,76.1918552 C166.191855,77.9565611 158.866968,86.280543 163.438914,101.169231 L166.832579,101.169231 Z" id="Fill-9" fill-opacity="0.3" fill="#FFFFFF" mask="url(#mask-2)"></path>
        <path d="M228.054299,40.6914027 L224.79638,40.6914027 L224.79638,37.639819 C224.79638,37.3411765 225.095023,37.4334842 224.79638,37.4334842 L223.167421,37.4334842 C222.868778,37.4334842 222.081448,37.3411765 222.081448,37.639819 L222.081448,40.6914027 L219.909502,40.6914027 C219.61086,40.6914027 218.823529,40.599095 218.823529,40.8977376 L218.823529,42.5266968 C218.823529,42.8253394 219.61086,43.4063348 219.909502,43.4063348 L222.081448,43.4063348 L222.081448,45.7846154 C222.081448,46.0832579 222.868778,46.6642534 223.167421,46.6642534 L224.79638,46.6642534 C225.095023,46.6642534 224.79638,46.0832579 224.79638,45.7846154 L224.79638,43.4063348 L228.054299,43.4063348 C228.352941,43.4063348 228.054299,42.8253394 228.054299,42.5266968 L228.054299,40.8977376 C228.054299,40.599095 228.352941,40.6914027 228.054299,40.6914027" id="Fill-10" fill-opacity="0.7" fill="#FFFFFF" mask="url(#mask-2)"></path>
        <path d="M200.063348,62.2914027 C200.171946,66.2769231 198.488688,69.4588235 195.084163,71.7393665 C193.276018,72.9665158 191.391855,73.6289593 190.278733,73.9438914 C190.658824,68.7855204 193.390045,63.3882353 200.068778,62.2914027 L200.063348,62.2914027 Z M189.420814,75.8117647 C189.475113,75.8117647 189.518552,75.800905 189.567421,75.7900452 C189.697738,75.7683258 202.675113,73.3031674 201.643439,61.2923077 C201.621719,61.0751131 201.518552,60.8742081 201.350226,60.7330317 C201.18733,60.5918552 200.970136,60.5266968 200.752941,60.5484163 C194.942986,61.1457014 188.714932,65.2723982 188.606335,74.9375566 C188.606335,75.1547511 188.714932,75.3719457 188.894118,75.5348416 C189.040724,75.6434389 189.230769,75.7140271 189.420814,75.7140271 L189.420814,75.8117647 Z M58.6425339,114.472398 C57.8932127,114.472398 57.2850679,113.864253 57.2850679,113.114932 C57.2850679,112.365611 57.8932127,111.757466 58.6425339,111.757466 C59.3918552,111.757466 60,112.365611 60,113.114932 C60,113.864253 59.3918552,114.472398 58.6425339,114.472398 L58.6425339,114.472398 Z M58.6425339,110.128507 C56.9972851,110.128507 55.6561086,111.469683 55.6561086,113.114932 C55.6561086,114.760181 56.9972851,116.101357 58.6425339,116.101357 C60.2877828,116.101357 61.6289593,114.760181 61.6289593,113.114932 C61.6289593,111.469683 60.2877828,110.128507 58.6425339,110.128507 L58.6425339,110.128507 Z M41.8099548,107.142081 L75.4751131,107.142081 L75.4751131,45.241629 L41.8099548,45.241629 L41.8099548,107.142081 Z M76.2895928,43.6126697 L40.9954751,43.6126697 C40.5447964,43.6126697 40.1809955,43.9764706 40.1809955,44.4271493 L40.1809955,107.956561 C40.1809955,108.40724 40.5447964,108.771041 40.9954751,108.771041 L76.2895928,108.771041 C76.7402715,108.771041 77.1040724,108.40724 77.1040724,107.956561 L77.1040724,44.4271493 C77.1040724,43.9764706 76.7402715,43.6126697 76.2895928,43.6126697 L76.2895928,43.6126697 Z M180.542986,61.8027149 C181.140271,61.8027149 181.628959,62.2914027 181.628959,62.8886878 C181.628959,63.4859729 181.140271,63.9746606 180.542986,63.9746606 C179.945701,63.9746606 179.457014,63.4859729 179.457014,62.8886878 C179.457014,62.2914027 179.945701,61.8027149 180.542986,61.8027149 L180.542986,61.8027149 Z M180.542986,65.6036199 C182.041629,65.6036199 183.257919,64.3873303 183.257919,62.8886878 C183.257919,61.3900452 182.041629,60.1737557 180.542986,60.1737557 C179.044344,60.1737557 177.828054,61.3900452 177.828054,62.8886878 C177.828054,64.3873303 179.044344,65.6036199 180.542986,65.6036199 L180.542986,65.6036199 Z M148.235294,96.2823529 L156.923077,96.2823529 L156.923077,87.5945701 L148.235294,87.5945701 L148.235294,96.2823529 Z M147.420814,97.9113122 L157.737557,97.9113122 C158.188235,97.9113122 158.552036,97.5475113 158.552036,97.0968326 L158.552036,86.7800905 C158.552036,86.3294118 158.188235,85.9656109 157.737557,85.9656109 L147.420814,85.9656109 C146.970136,85.9656109 146.606335,86.3294118 146.606335,86.7800905 L146.606335,97.0968326 C146.606335,97.5475113 146.970136,97.9113122 147.420814,97.9113122 L147.420814,97.9113122 Z M129.230769,96.2823529 L137.918552,96.2823529 L137.918552,87.5945701 L129.230769,87.5945701 L129.230769,96.2823529 Z M128.41629,97.9113122 L138.733032,97.9113122 C139.18371,97.9113122 139.547511,97.5475113 139.547511,97.0968326 L139.547511,86.7800905 C139.547511,86.3294118 139.18371,85.9656109 138.733032,85.9656109 L128.41629,85.9656109 C127.965611,85.9656109 127.60181,86.3294118 127.60181,86.7800905 L127.60181,97.0968326 C127.60181,97.5475113 127.965611,97.9113122 128.41629,97.9113122 L128.41629,97.9113122 Z M109.683258,96.2823529 L118.371041,96.2823529 L118.371041,87.5945701 L109.683258,87.5945701 L109.683258,96.2823529 Z M108.868778,97.9113122 L119.18552,97.9113122 C119.636199,97.9113122 120,97.5475113 120,97.0968326 L120,86.7800905 C120,86.3294118 119.636199,85.9656109 119.18552,85.9656109 L108.868778,85.9656109 C108.4181,85.9656109 108.054299,86.3294118 108.054299,86.7800905 L108.054299,97.0968326 C108.054299,97.5475113 108.4181,97.9113122 108.868778,97.9113122 L108.868778,97.9113122 Z M90.678733,96.2823529 L99.3665158,96.2823529 L99.3665158,87.5945701 L90.678733,87.5945701 L90.678733,96.2823529 Z M89.8642534,97.9113122 L100.180995,97.9113122 C100.631674,97.9113122 100.995475,97.5475113 100.995475,97.0968326 L100.995475,86.7800905 C100.995475,86.3294118 100.631674,85.9656109 100.180995,85.9656109 L89.8642534,85.9656109 C89.4135747,85.9656109 89.0497738,86.3294118 89.0497738,86.7800905 L89.0497738,97.0968326 C89.0497738,97.5475113 89.4135747,97.9113122 89.8642534,97.9113122 L89.8642534,97.9113122 Z" id="Fill-11" fill="#FFFFFF" mask="url(#mask-2)"></path>
        <path d="M200.736652,118.056109 C197.967421,118.056109 196.827149,117.551131 195.578281,117.013575 C194.38371,116.486878 193.134842,115.938462 190.528507,115.938462 C187.563801,115.938462 185.875113,116.720362 184.39276,117.404525 C183.252489,117.925792 182.361991,118.338462 181.091403,118.338462 C178.175566,118.338462 166.903167,110.247964 166.903167,92.2316742 C166.903167,77.0660633 178.685973,76.6316742 180.043439,76.6316742 C181.726697,76.6316742 183.138462,77.1746606 184.658824,77.7176471 C186.233484,78.3149321 187.835294,78.9122172 189.762896,78.9122172 C191.690498,78.9122172 193.536652,78.3149321 195.328507,77.7719457 C197.022624,77.2289593 198.624434,76.7294118 200.182805,76.7294118 C202.843439,76.7294118 206.682353,77.5221719 210.152036,81.1438914 C208.376471,82.4850679 204.325792,86.2208145 204.325792,92.5466063 C204.325792,99.8932127 209.484163,103.080543 211.764706,104.459729 C210.211765,108.78733 205.813575,118.159276 200.709502,118.159276 L200.736652,118.056109 Z M80.3022624,113.114932 C80.3565611,112.39276 80.3565611,111.898643 80.3565611,111.866063 L80.3565611,108.228054 L168.80905,108.228054 C169.677828,110.085068 170.709502,111.703167 171.795475,113.114932 L80.3076923,113.114932 L80.3022624,113.114932 Z M77.2072398,116.307692 C76.121267,117.431674 74.5466063,118.00181 72.4832579,118.00181 L44.4651584,118.00181 C42.40181,118.00181 40.8271493,117.442534 39.8497738,116.334842 C38.2208145,114.580995 38.4923077,111.969231 38.4923077,111.947511 L38.4923077,42.2280543 C38.4923077,39.8063348 39.0895928,37.9927602 40.3384615,36.8524887 C41.9131222,35.3538462 44.0307692,35.4678733 44.0850679,35.4678733 L72.8090498,35.4678733 C72.8090498,35.4678733 75.0895928,35.3321267 76.8271493,36.9176471 C78.0217195,38.0579186 78.6733032,39.8497738 78.6733032,42.2280543 L78.6733032,111.920362 C78.6733032,111.936652 78.7819005,114.526697 77.1529412,116.302262 L77.2072398,116.307692 Z M77.9945701,35.7285068 C75.8769231,33.7520362 73.1402715,33.8280543 72.7927602,33.838914 L67.3303167,33.838914 L67.3303167,21.3502262 L173.755656,21.3502262 L173.755656,76.5067873 C172.941176,76.8977376 172.126697,77.3755656 171.312217,77.9945701 C167.375566,80.9918552 165.377376,85.7864253 165.377376,92.2316742 C165.377376,97.9330317 166.463348,102.711312 168.092308,106.599095 L80.361991,106.599095 L80.361991,42.2226244 C80.361991,39.3828054 79.5638009,37.1945701 77.9945701,35.7285068 L77.9945701,35.7285068 Z M53.2126697,21.6923077 C53.2561086,21.1656109 53.9022624,14.8343891 59.8533937,14.8343891 L178.642534,14.8343891 C185.348416,14.8343891 185.690498,21.4045249 185.701357,21.6597285 L185.701357,76.3113122 C185.565611,76.2570136 185.429864,76.2135747 185.288688,76.1647059 C183.714027,75.5945701 182.085068,75.0027149 180.130317,75.0027149 C179.413575,75.0027149 177.561991,75.1113122 175.384615,75.8714932 L175.384615,20.5357466 C175.384615,20.0850679 175.020814,19.721267 174.570136,19.721267 L66.5158371,19.721267 C66.0651584,19.721267 65.7013575,20.0850679 65.7013575,20.5357466 L65.7013575,33.838914 L53.2126697,33.838914 L53.2126697,21.6923077 Z M213.247059,103.314027 L212.720362,102.988235 C210.548416,101.674208 206.030769,98.9266968 206.030769,92.438009 C206.030769,85.4552036 211.824434,81.920362 211.878733,81.8877828 C212.095928,81.7248869 212.258824,81.5076923 212.313122,81.2904977 C212.367421,81.0190045 212.313122,80.80181 212.150226,80.5846154 C207.914932,75.6434389 202.919457,74.9375566 200.356561,74.9375566 C198.542986,74.9375566 196.745701,75.480543 195.008145,76.0778281 C193.324887,76.5773756 191.58733,77.1638009 189.925792,77.1638009 C189.057014,77.1638009 188.231674,77.000905 187.428054,76.7837104 L187.428054,21.6217195 C187.428054,21.5348416 187.031674,13.1945701 178.740271,13.1945701 L59.8914027,13.1945701 C53.8099548,13.1945701 51.8226244,18.6895928 51.6217195,21.5945701 L51.6217195,33.838914 L44.2533937,33.838914 C43.9113122,33.8226244 41.3375566,33.7628959 39.3230769,35.641629 C37.7484163,37.1076923 36.9502262,39.3230769 36.9502262,42.2280543 L36.9502262,111.828054 C36.9230769,112.251584 36.760181,115.238009 38.7312217,117.420814 C40.0615385,118.886878 42.0217195,119.630769 44.5574661,119.630769 L72.521267,119.630769 C75.0461538,119.630769 77.0280543,118.886878 78.4072398,117.420814 C79.1945701,116.584615 79.6669683,115.628959 79.9547511,114.743891 L173.131222,114.743891 C176.280543,118.273303 179.560181,119.967421 181.18914,119.967421 C182.8181,119.967421 183.958371,119.440724 185.152941,118.881448 C186.564706,118.229864 187.976471,117.567421 190.582805,117.567421 C192.80905,117.567421 193.840724,118.00181 194.980995,118.506787 C196.229864,119.049774 197.641629,119.685068 200.736652,119.685068 C208.338462,119.685068 213.333937,104.883258 213.513122,104.253394 C213.643439,103.905882 213.513122,103.514932 213.18733,103.314027 L213.247059,103.314027 Z" id="Fill-12" fill="#FFFFFF" mask="url(#mask-2)"></path>
    </g>
</svg>