
<svg width="209px" height="121px" viewBox="0 0 209 121" version="1.1" xmlns="http://www.w3.org/2000/svg" xmlns:xlink="http://www.w3.org/1999/xlink">
    <!-- Generator: Sketch 41.2 (35397) - http://www.bohemiancoding.com/sketch -->
    <desc>Created with Sketch.</desc>
    <defs>
        <polygon id="path-1" points="0 119.469027 208.741593 119.469027 208.741593 0.116814159 0 0.116814159"></polygon>
    </defs>
    <g id="Illustration" stroke="none" stroke-width="1" fill="none" fill-rule="evenodd">
        <path d="M198.759186,53.2299823 L193.343257,55.7998938 L198.759186,58.0729912 L201.042372,63.5414867 L203.325558,57.9981239 L208.741487,55.7680354 L203.325558,53.2087434 L201.042372,48.0901593 L198.759186,53.2299823 Z M183.217593,87.6264425 L180.366265,88.9698053 L183.212283,90.1485664 L184.422903,93.0057345 L185.713168,90.0906903 L188.527327,88.9220177 L185.660071,87.5945841 L184.439363,84.9397168 L183.217593,87.6264425 Z" id="Fill-1" fill-opacity="0.7" fill="#FFFFFF"></path>
        <path d="M53.6017699,106.077876 L40.9433628,106.077876 L38.7345133,103.423009 L53.6017699,103.423009 L53.6017699,106.077876 Z M62.0973451,106.077876 L99.7964602,106.077876 L99.7964602,103.423009 L62.0973451,103.423009 L62.0973451,106.077876 Z M110.946903,76.3433628 L113.60177,76.3433628 L113.60177,21.6530973 L110.946903,21.6530973 L110.946903,76.3433628 Z" id="Fill-2" fill-opacity="0.6" fill="#FFFFFF"></path>
        <g id="Group-19" transform="translate(0.000000, 0.414159)">
            <path d="M5.01769912,86.5221239 C3.40353982,86.5221239 2.09734513,85.2212389 2.09734513,83.6176991 C2.09734513,82.0088496 3.40353982,80.7079646 5.01769912,80.7079646 C6.63185841,80.7079646 7.9380531,82.0088496 7.9380531,83.6176991 C7.9380531,85.2212389 6.63185841,86.5221239 5.01769912,86.5221239 L5.01769912,86.5221239 Z M5.04424779,78.5840708 C2.2619469,78.5840708 0,80.840708 0,83.6283186 C0,86.4159292 2.2619469,88.6725664 5.04424779,88.6725664 C7.82654867,88.6725664 10.0778761,86.4159292 10.0778761,83.6283186 C10.0778761,80.840708 7.82654867,78.5840708 5.04424779,78.5840708 L5.04424779,78.5840708 Z" id="Fill-3" fill-opacity="0.7" fill="#FFFFFF"></path>
            <path d="M156.610619,79.5132743 L156.610619,113.097345 C156.610619,113.097345 156.610619,115.221239 154.486726,115.221239 L101.389381,115.221239 L101.389381,117.876106 L159.265487,117.876106 L159.265487,77.3893805 L156.610619,79.5132743 Z" id="Fill-5" fill-opacity="0.6" fill="#FFFFFF"></path>
            <path d="M18.0265487,44.6017699 C19.199469,44.6017699 20.1504425,45.5527434 20.1504425,46.7256637 C20.1504425,47.8985841 19.199469,48.8495575 18.0265487,48.8495575 C16.8536283,48.8495575 15.9026549,47.8985841 15.9026549,46.7256637 C15.9026549,45.5527434 16.8536283,44.6017699 18.0265487,44.6017699" id="Fill-7" fill-opacity="0.7" fill="#FFFFFF"></path>
            <polyline id="Fill-9" fill-opacity="0.6" fill="#FFFFFF" points="101.389381 78.0212389 130.077876 95.0442478 159.265487 78.159292 159.265487 80.1769912 130.061947 97.1681416 101.389381 80.1769912"></polyline>
            <path d="M146.500885,44.4318584 C147.260177,46.640708 145.247788,48.1168142 145.247788,48.1168142 L147.584071,50.7185841 L147.584071,53.0973451 L140.150442,53.0973451 L140.150442,50.7079646 L142.688496,48.1168142 C142.688496,48.1168142 140.846018,46.640708 141.60531,44.4318584 C142.359292,42.2176991 145.746903,42.2176991 146.500885,44.4318584" id="Fill-11" fill-opacity="0.6" fill="#FFFFFF"></path>
            <mask id="mask-2" fill="white">
                <use xlink:href="#path-1"></use>
            </mask>
            <g id="Clip-14"></g>
            <path d="M45.1061947,15.3982301 L59.4424779,15.3982301 L59.4424779,6.37168142 L45.1061947,6.37168142 L45.1061947,15.3982301 Z M101.851327,13.2318584 L99.0371681,10.8424779 L98.0283186,1.59292035 L38.7345133,1.59292035 L38.7345133,20.1769912 L114.663717,20.1769912 L114.663717,14.240708 L101.851327,13.2318584 L101.851327,13.2318584 Z" id="Fill-13" fill-opacity="0.3" fill="#FFFFFF" mask="url(#mask-2)"></path>
            <path d="M141.212389,12.2123894 L138.557522,12.2123894 L138.557522,9.55752212 C138.557522,9.26548673 138.318584,9.02654867 138.026549,9.02654867 L136.433628,9.02654867 C136.141593,9.02654867 135.902655,9.26548673 135.902655,9.55752212 L135.902655,12.2123894 L133.247788,12.2123894 C132.955752,12.2123894 132.716814,12.4513274 132.716814,12.7433628 L132.716814,14.3362832 C132.716814,14.6283186 132.955752,14.8672566 133.247788,14.8672566 L135.902655,14.8672566 L135.902655,17.5221239 C135.902655,17.8141593 136.141593,18.0530973 136.433628,18.0530973 L138.026549,18.0530973 C138.318584,18.0530973 138.557522,17.8141593 138.557522,17.5221239 L138.557522,14.8672566 L141.212389,14.8672566 C141.504425,14.8672566 141.743363,14.6283186 141.743363,14.3362832 L141.743363,12.7433628 C141.743363,12.4513274 141.504425,12.2123894 141.212389,12.2123894" id="Fill-15" fill-opacity="0.6" fill="#FFFFFF" mask="url(#mask-2)"></path>
            <path d="M134.840708,57.3451327 L169.353982,57.3451327 L169.353982,39.2920354 L134.840708,39.2920354 L134.840708,57.3451327 Z M148.646018,36.1061947 L150.387611,36.1061947 C150.833628,36.1061947 151.300885,35.7504425 151.300885,35.3097345 L151.300885,35.2778761 C151.300885,35.0654867 151.449558,33.8017699 152.893805,33.8017699 C154.338053,33.8017699 154.486726,35.0761062 154.486726,35.2884956 L154.486726,35.3097345 C154.486726,35.7504425 154.773451,36.1061947 155.214159,36.1061947 L156.610619,36.1061947 L156.610619,37.699115 L148.646018,37.699115 L148.646018,36.1061947 Z M170.150442,37.699115 L158.20354,37.699115 L158.20354,35.3097345 C158.20354,34.8690265 157.847788,34.5132743 157.40708,34.5132743 L155.814159,34.5132743 C155.729204,34.2477876 155.60177,33.939823 155.421239,33.6424779 C155.017699,32.9893805 154.215929,32.2088496 152.713274,32.2088496 C151.210619,32.2088496 150.40885,32.9893805 150.00531,33.6424779 C149.819469,33.939823 149.697345,34.2424779 149.617699,34.5132743 L147.849558,34.5132743 C147.40885,34.5132743 147.053097,34.8690265 147.053097,35.3097345 L147.053097,37.699115 L134.044248,37.699115 C133.60354,37.699115 133.247788,38.0548673 133.247788,38.4955752 L133.247788,58.1415929 C133.247788,58.5823009 133.60354,58.9380531 134.044248,58.9380531 L170.150442,58.9380531 C170.59115,58.9380531 170.946903,58.5823009 170.946903,58.1415929 L170.946903,38.4955752 C170.946903,38.0548673 170.59115,37.699115 170.150442,37.699115 L170.150442,37.699115 Z" id="Fill-16" fill="#FFFFFF" mask="url(#mask-2)"></path>
            <path d="M44.500885,105.663717 C43.279646,105.663717 39.2654867,105.307965 39.2654867,100.709735 L39.2654867,21.2389381 L113.60177,21.2389381 L113.60177,75.9292035 L100.571681,75.9292035 C100.539823,75.9292035 100.518584,75.9292035 100.486726,75.939823 C100.460177,75.939823 100.433628,75.939823 100.412389,75.9504425 C100.385841,75.9504425 100.359292,75.9663717 100.338053,75.9716814 C100.316814,75.9823009 100.284956,75.9876106 100.263717,76.0035398 L100.2,76.0353982 L100.136283,76.0778761 C100.115044,76.0884956 100.093805,76.1097345 100.083186,76.1309735 C100.056637,76.1415929 100.030088,76.1575221 100.019469,76.1840708 L99.9663717,76.2371681 L99.9132743,76.300885 L99.9132743,76.3221239 C99.8973451,76.3327434 99.8973451,76.3486726 99.8867257,76.3646018 L99.8495575,76.4442478 L99.8283186,76.5132743 L99.8123894,76.5929204 L99.8017699,76.6778761 L99.8017699,105.663717 L62.1026549,105.663717 L62.1026549,75.9026549 C62.1026549,75.7433628 62.0495575,75.5840708 61.9964602,75.4460177 L58.5451327,70.4017699 C58.279646,69.9769912 57.5362832,69.9769912 57.2176991,70.4017699 L53.7663717,75.3929204 C53.7132743,75.499115 53.660177,75.6584071 53.660177,75.8176991 L53.660177,105.663717 L44.5274336,105.663717 L44.500885,105.663717 Z M39.2654867,6.25486726 C39.2654867,6.06371681 39.4141593,1.59292035 44.5486726,1.59292035 L98.2035398,1.59292035 L98.2035398,8.63362832 C98.2035398,10.5026549 98.7876106,12 99.9345133,13.0831858 C101.978761,15.0212389 105.058407,14.8725664 105.138053,14.8672566 L113.60177,14.8672566 L113.60177,19.6460177 L39.2654867,19.6460177 L39.2654867,6.25486726 Z M99.7964602,2.50619469 L112.582301,13.2743363 L105.106195,13.2743363 C105.079646,13.2743363 102.557522,13.380531 101.017699,11.920354 C100.210619,11.1504425 99.7964602,10.040708 99.7964602,8.62831858 L99.7964602,2.50619469 Z M157.348673,77.5221239 L130.061947,93.1964602 L103.513274,77.5221239 L157.39646,77.5221239 L157.348673,77.5221239 Z M101.384071,117.876106 L101.384071,78.1168142 L129.684956,94.8053097 C129.79115,94.8743363 129.950442,94.9115044 130.056637,94.9115044 C130.162832,94.9115044 130.322124,94.879646 130.428319,94.8053097 L159.20708,78.2920354 L159.20708,117.876106 L101.389381,117.876106 L101.384071,117.876106 Z M57.8442478,117.212389 C55.3486726,117.212389 55.1893805,114.929204 55.1893805,114.690265 L55.1893805,112.035398 L60.499115,112.035398 L60.499115,114.674336 C60.499115,114.780531 60.3929204,117.212389 57.8442478,117.212389 L57.8442478,117.212389 Z M55.7097345,75.3982301 L57.8495575,72.2920354 L59.9893805,75.3982301 L55.7097345,75.3982301 Z M55.1946903,110.442478 L60.5044248,110.442478 L60.5044248,108.318584 L55.1946903,108.318584 L55.1946903,110.442478 Z M55.1946903,106.725664 L60.5044248,106.725664 L60.5044248,76.9911504 L55.1946903,76.9911504 L55.1946903,106.725664 Z M53.6017699,114.706195 C53.6283186,116.123894 54.5575221,118.80531 57.8495575,118.80531 C61.1415929,118.80531 62.0654867,116.123894 62.0973451,114.690265 L62.0973451,107.256637 L99.7964602,107.256637 L99.7964602,118.672566 C99.7964602,119.113274 100.152212,119.469027 100.59292,119.469027 L160.061947,119.469027 C160.502655,119.469027 160.858407,119.113274 160.858407,118.672566 L160.858407,76.7256637 C160.858407,76.2849558 160.502655,75.9292035 160.061947,75.9292035 L115.19469,75.9292035 L115.19469,14.0707965 C115.19469,14.0176991 115.19469,13.9646018 115.178761,13.9115044 C115.231858,13.6353982 115.136283,13.3433628 114.913274,13.1522124 L99.5150442,0.185840708 L99.4778761,0.16460177 L99.3451327,0.16460177 L99.2707965,0.153982301 L99.2176991,0.132743363 L99.1646018,0.116814159 L44.5752212,0.116814159 C37.900885,0.116814159 37.7044248,6.27610619 37.7044248,6.35575221 L37.7044248,100.815929 C37.7044248,105.647788 41.3946903,107.384071 44.5433628,107.384071 L53.6017699,107.384071 L53.6017699,114.838938 L53.6017699,114.706195 Z M152.893805,52.0353982 L157.672566,52.0353982 C158.113274,52.0353982 158.469027,51.679646 158.469027,51.2389381 C158.469027,50.7982301 158.113274,50.4424779 157.672566,50.4424779 L152.893805,50.4424779 C152.453097,50.4424779 152.097345,50.7982301 152.097345,51.2389381 C152.097345,51.679646 152.453097,52.0353982 152.893805,52.0353982 L152.893805,52.0353982 Z M152.893805,48.3185841 L163.513274,48.3185841 C163.953982,48.3185841 164.309735,47.9628319 164.309735,47.5221239 C164.309735,47.0814159 163.953982,46.7256637 163.513274,46.7256637 L152.893805,46.7256637 C152.453097,46.7256637 152.097345,47.0814159 152.097345,47.5221239 C152.097345,47.9628319 152.453097,48.3185841 152.893805,48.3185841 L152.893805,48.3185841 Z M152.893805,44.6017699 L163.513274,44.6017699 C163.953982,44.6017699 164.309735,44.2460177 164.309735,43.8053097 C164.309735,43.3646018 163.953982,43.0088496 163.513274,43.0088496 L152.893805,43.0088496 C152.453097,43.0088496 152.097345,43.3646018 152.097345,43.8053097 C152.097345,44.2460177 152.453097,44.6017699 152.893805,44.6017699 L152.893805,44.6017699 Z" id="Fill-17" fill="#FFFFFF" mask="url(#mask-2)"></path>
            <path d="M141.212389,51.0265487 L143.40531,48.6584071 C143.564602,48.499115 143.633628,48.2761062 143.617699,48.0530973 C143.59646,47.8300885 143.490265,47.6283186 143.309735,47.4902655 C143.299115,47.479646 141.860177,46.3433628 142.423009,44.6867257 C142.704425,43.8637168 143.469027,43.5716814 144.084956,43.5716814 C144.700885,43.5716814 145.465487,43.8637168 145.784071,44.6867257 C146.368142,46.3221239 144.987611,47.4477876 144.934513,47.4902655 C144.775221,47.6336283 144.669027,47.8353982 144.669027,48.0637168 C144.669027,48.2920354 144.722124,48.5044248 144.881416,48.6690265 L147.153982,51.0318584 L147.153982,52.040708 L141.313274,52.040708 L141.313274,51.0318584 L141.212389,51.0265487 Z M140.415929,53.6283186 L147.849558,53.6283186 C148.290265,53.6283186 148.646018,53.2725664 148.646018,52.8318584 L148.646018,50.7079646 C148.646018,50.5115044 148.566372,50.3150442 148.433628,50.1663717 L146.484956,48.1221239 C147.100885,47.3681416 147.865487,45.9769912 147.254867,44.1716814 C146.79823,42.7911504 145.555752,41.9415929 144.084956,41.9415929 C142.651327,41.9415929 141.376991,42.7911504 140.952212,44.1185841 C140.368142,45.9238938 141.164602,47.3044248 141.748673,48.0477876 L139.890265,50.0654867 C139.784071,50.2088496 139.677876,50.4 139.677876,50.5964602 L139.677876,52.720354 C139.677876,53.1610619 140.049558,53.5168142 140.474336,53.5168142 L140.415929,53.6283186 Z M46.1681416,14.8672566 L58.9115044,14.8672566 L58.9115044,6.90265487 L46.1681416,6.90265487 L46.1681416,14.8672566 Z M59.7079646,5.30973451 L45.3716814,5.30973451 C44.9309735,5.30973451 44.5752212,5.66548673 44.5752212,6.10619469 L44.5752212,15.6637168 C44.5752212,16.1044248 44.9309735,16.460177 45.3716814,16.460177 L59.7079646,16.460177 C60.1486726,16.460177 60.5044248,16.1044248 60.5044248,15.6637168 L60.5044248,6.10619469 C60.5044248,5.66548673 60.1486726,5.30973451 59.7079646,5.30973451 L59.7079646,5.30973451 Z M59.1769912,54.9557522 C59.1769912,54.5150442 58.8212389,54.159292 58.380531,54.159292 L47.7610619,54.159292 C47.320354,54.159292 46.9646018,54.5150442 46.9646018,54.9557522 C46.9646018,55.3964602 47.320354,55.7522124 47.7610619,55.7522124 L58.380531,55.7522124 C58.8212389,55.7522124 59.1769912,55.3964602 59.1769912,54.9557522 L59.1769912,54.9557522 Z M47.7610619,38.7610619 L96.079646,38.7610619 C96.520354,38.7610619 96.8761062,38.4053097 96.8761062,37.9646018 C96.8761062,37.5238938 96.520354,37.1681416 96.079646,37.1681416 L47.7610619,37.1681416 C47.320354,37.1681416 46.9646018,37.5238938 46.9646018,37.9646018 C46.9646018,38.4053097 47.320354,38.7610619 47.7610619,38.7610619 L47.7610619,38.7610619 Z M47.7610619,32.920354 L105.637168,32.920354 C106.077876,32.920354 106.433628,32.5646018 106.433628,32.1238938 C106.433628,31.6831858 106.077876,31.3274336 105.637168,31.3274336 L47.7610619,31.3274336 C47.320354,31.3274336 46.9646018,31.6831858 46.9646018,32.1238938 C46.9646018,32.5646018 47.320354,32.920354 47.7610619,32.920354 L47.7610619,32.920354 Z M47.7610619,49.9115044 L100.858407,49.9115044 C101.299115,49.9115044 101.654867,49.5557522 101.654867,49.1150442 C101.654867,48.6743363 101.299115,48.3185841 100.858407,48.3185841 L47.7610619,48.3185841 C47.320354,48.3185841 46.9646018,48.6743363 46.9646018,49.1150442 C46.9646018,49.5557522 47.320354,49.9115044 47.7610619,49.9115044 L47.7610619,49.9115044 Z M47.7610619,44.0707965 L105.637168,44.0707965 C106.077876,44.0707965 106.433628,43.7150442 106.433628,43.2743363 C106.433628,42.8336283 106.077876,42.4778761 105.637168,42.4778761 L47.7610619,42.4778761 C47.320354,42.4778761 46.9646018,42.8336283 46.9646018,43.2743363 C46.9646018,43.7150442 47.320354,44.0707965 47.7610619,44.0707965 L47.7610619,44.0707965 Z" id="Fill-18" fill="#FFFFFF" mask="url(#mask-2)"></path>
        </g>
    </g>
</svg>