
<svg width="243px" height="121px" viewBox="0 0 243 121" version="1.1" xmlns="http://www.w3.org/2000/svg" xmlns:xlink="http://www.w3.org/1999/xlink">
    <!-- Generator: Sketch 41.2 (35397) - http://www.bohemiancoding.com/sketch -->
    <desc>Created with Sketch.</desc>
    <defs>
        <polygon id="path-1" points="0 120 242.128079 120 242.128079 0 0 0"></polygon>
    </defs>
    <g id="Illustration" stroke="none" stroke-width="1" fill="none" fill-rule="evenodd">
        <path d="M32.8078818,24.2364532 C30.3251232,24.2364532 28.3743842,22.226601 28.3743842,19.8029557 C28.3743842,17.3793103 30.3251232,15.3694581 32.8078818,15.3694581 C35.2315271,15.3694581 37.2413793,17.3793103 37.2413793,19.8029557 C37.2413793,22.226601 35.2315271,24.2364532 32.8078818,24.2364532 M32.8078818,12.4137931 C28.729064,12.4137931 25.4187192,15.7241379 25.4187192,19.8029557 C25.4187192,23.8817734 28.729064,27.1921182 32.8078818,27.1921182 C36.8866995,27.1921182 40.1970443,23.8817734 40.1970443,19.8029557 C40.1970443,15.7241379 36.8866995,12.4137931 32.8078818,12.4137931 M220.729064,98.955665 L219.369458,95.7635468 L216.17734,94.4630542 L219.369458,92.9852217 L220.729064,89.9704433 L222.08867,92.9261084 L225.280788,94.4039409 L222.08867,95.7044335 M233.320197,71.1724138 L230.719212,64.9655172 L224.512315,62.364532 L230.719212,59.4679803 L233.320197,53.6157635 L235.921182,59.4679803 L242.128079,62.364532 L235.921182,64.9655172" id="Fill-3" fill-opacity="0.7" fill="#FFFFFF"></path>
        <mask id="mask-2" fill="white">
            <use xlink:href="#path-1"></use>
        </mask>
        <g id="Clip-6"></g>
        <path d="M56.1576355,109.950739 L59.1133005,109.950739 L59.1133005,47.2906404 L56.1576355,47.2906404 L56.1576355,109.950739 Z M185.024631,83.9408867 L185.024631,98.1280788 C185.024631,98.1280788 184.965517,100.492611 182.600985,100.492611 L64.4334975,100.492611 L64.4334975,106.403941 L190.935961,106.403941 L190.935961,83.9408867 L185.024631,83.9408867 Z M185.024631,47.2906404 L190.935961,47.2906404 L190.935961,33.1034483 L185.024631,33.1034483 L185.024631,47.2906404 Z" id="Fill-5" fill-opacity="0.3" fill="#FFFFFF" mask="url(#mask-2)"></path>
        <path d="M2.36453202,91.6256158 C3.67034483,91.6256158 4.72906404,92.684335 4.72906404,93.9901478 C4.72906404,95.2959606 3.67034483,96.3546798 2.36453202,96.3546798 C1.05871921,96.3546798 0,95.2959606 0,93.9901478 C0,92.684335 1.05871921,91.6256158 2.36453202,91.6256158" id="Fill-7" fill-opacity="0.7" fill="#FFFFFF" mask="url(#mask-2)"></path>
        <path d="M170.837438,83.9408867 L166.699507,83.9408867 C166.403941,83.9408867 166.108374,83.7044335 166.108374,83.3497537 L166.108374,47.8817734 C166.108374,47.5270936 166.403941,47.2906404 166.699507,47.2906404 L170.837438,47.2906404 L170.837438,83.9408867 Z" id="Fill-8" fill-opacity="0.3" fill="#FFFFFF" mask="url(#mask-2)"></path>
        <polygon id="Fill-9" fill-opacity="0.7" fill="#FFFFFF" mask="url(#mask-2)" points="170.837438 53.2019704 210.44335 53.2019704 210.44335 49.0640394 170.837438 49.0640394"></polygon>
        <path d="M172.906404,50.2463054 C173.395862,50.2463054 173.793103,50.6435468 173.793103,51.1330049 C173.793103,51.6224631 173.395862,52.0197044 172.906404,52.0197044 C172.416946,52.0197044 172.019704,51.6224631 172.019704,51.1330049 C172.019704,50.6435468 172.416946,50.2463054 172.906404,50.2463054" id="Fill-10" fill="#FFFFFF" mask="url(#mask-2)"></path>
        <path d="M175.862069,50.2463054 C176.351527,50.2463054 176.748768,50.6435468 176.748768,51.1330049 C176.748768,51.6224631 176.351527,52.0197044 175.862069,52.0197044 C175.372611,52.0197044 174.975369,51.6224631 174.975369,51.1330049 C174.975369,50.6435468 175.372611,50.2463054 175.862069,50.2463054" id="Fill-11" fill="#FFFFFF" mask="url(#mask-2)"></path>
        <path d="M178.817734,50.2463054 C179.307192,50.2463054 179.704433,50.6435468 179.704433,51.1330049 C179.704433,51.6224631 179.307192,52.0197044 178.817734,52.0197044 C178.328276,52.0197044 177.931034,51.6224631 177.931034,51.1330049 C177.931034,50.6435468 178.328276,50.2463054 178.817734,50.2463054" id="Fill-12" fill="#FFFFFF" mask="url(#mask-2)"></path>
        <path d="M66.2068966,2.36453202 L64.4334975,2.36453202 L64.4334975,0.591133005 C64.4334975,0.236453202 64.1970443,0 63.8423645,0 L62.6600985,0 C62.3054187,0 62.0689655,0.236453202 62.0689655,0.591133005 L62.0689655,2.36453202 L60.2955665,2.36453202 C59.9408867,2.36453202 59.7044335,2.60098522 59.7044335,2.95566502 L59.7044335,4.13793103 C59.7044335,4.49261084 59.9408867,4.72906404 60.2955665,4.72906404 L62.0689655,4.72906404 L62.0689655,6.50246305 C62.0689655,6.85714286 62.3054187,7.09359606 62.6600985,7.09359606 L63.8423645,7.09359606 C64.1970443,7.09359606 64.4334975,6.85714286 64.4334975,6.50246305 L64.4334975,4.72906404 L66.2068966,4.72906404 C66.5615764,4.72906404 66.7980296,4.49261084 66.7980296,4.13793103 L66.7980296,2.95566502 C66.7980296,2.60098522 66.5615764,2.36453202 66.2068966,2.36453202" id="Fill-13" fill-opacity="0.7" fill="#FFFFFF" mask="url(#mask-2)"></path>
        <path d="M163.743842,69.1625616 L159.605911,69.1625616 C159.133005,69.1625616 158.719212,69.5763547 158.719212,70.0492611 C158.719212,70.5221675 159.133005,70.9359606 159.605911,70.9359606 L163.743842,70.9359606 C164.216749,70.9359606 164.630542,70.5221675 164.630542,70.0492611 C164.630542,69.5763547 164.216749,69.1625616 163.743842,69.1625616 L163.743842,69.1625616 Z M163.743842,62.6600985 L153.694581,62.6600985 C153.221675,62.6600985 152.807882,63.0738916 152.807882,63.546798 C152.807882,64.0197044 153.221675,64.4334975 153.694581,64.4334975 L163.743842,64.4334975 C164.216749,64.4334975 164.630542,64.0197044 164.630542,63.546798 C164.630542,63.0738916 164.216749,62.6600985 163.743842,62.6600985 L163.743842,62.6600985 Z M147.783251,57.3399015 L163.743842,57.3399015 C164.216749,57.3399015 164.630542,56.9261084 164.630542,56.453202 C164.630542,55.9802956 164.216749,55.5665025 163.743842,55.5665025 L147.783251,55.5665025 C147.310345,55.5665025 146.896552,55.9802956 146.896552,56.453202 C146.896552,56.9261084 147.310345,57.3399015 147.783251,57.3399015 L147.783251,57.3399015 Z M38.4236453,76.8472906 C37.9507389,76.8472906 37.5369458,77.2610837 37.5369458,77.7339901 C37.5369458,78.2068966 37.9507389,78.6206897 38.4236453,78.6206897 L44.3349754,78.6206897 C44.8078818,78.6206897 45.2216749,78.2068966 45.2216749,77.7339901 C45.2216749,77.2610837 44.8078818,76.8472906 44.3349754,76.8472906 L38.4236453,76.8472906 Z M45.5172414,93.9901478 L34.8768473,93.9901478 C34.4039409,93.9901478 33.9901478,94.4039409 33.9901478,94.8768473 C33.9901478,95.3497537 34.4039409,95.7635468 34.8768473,95.7635468 L45.5172414,95.7635468 C45.9901478,95.7635468 46.4039409,95.3497537 46.4039409,94.8768473 C46.4039409,94.4039409 45.9901478,93.9901478 45.5172414,93.9901478 L45.5172414,93.9901478 Z M50.8374384,82.1674877 L34.8768473,82.1674877 C34.4039409,82.1674877 33.9901478,82.5812808 33.9901478,83.0541872 C33.9901478,83.5270936 34.4039409,83.9408867 34.8768473,83.9408867 L50.8374384,83.9408867 C51.3103448,83.9408867 51.7241379,83.5270936 51.7241379,83.0541872 C51.7241379,82.5812808 51.3103448,82.1674877 50.8374384,82.1674877 L50.8374384,82.1674877 Z M39.6059113,53.2019704 L44.3349754,53.2019704 C44.8078818,53.2019704 45.2216749,52.7881773 45.2216749,52.3152709 C45.2216749,51.8423645 44.8078818,51.4285714 44.3349754,51.4285714 L39.6059113,51.4285714 C39.1330049,51.4285714 38.7192118,51.8423645 38.7192118,52.3152709 C38.7192118,52.7881773 39.1330049,53.2019704 39.6059113,53.2019704 L39.6059113,53.2019704 Z M39.9014778,88.3743842 C39.9014778,87.9014778 39.4876847,87.4876847 39.0147783,87.4876847 L30.7389163,87.4876847 C30.2660099,87.4876847 29.8522167,87.9014778 29.8522167,88.3743842 C29.8522167,88.8472906 30.2660099,89.2610837 30.7389163,89.2610837 L39.0147783,89.2610837 C39.4876847,89.2610837 39.9014778,88.8472906 39.9014778,88.3743842 L39.9014778,88.3743842 Z M48.1773399,72.4137931 C48.1773399,71.9408867 47.7635468,71.5270936 47.2906404,71.5270936 L30.7389163,71.5270936 C30.2660099,71.5270936 29.8522167,71.9408867 29.8522167,72.4137931 C29.8522167,72.8866995 30.2660099,73.3004926 30.7389163,73.3004926 L47.2906404,73.3004926 C47.7635468,73.3004926 48.1773399,72.8866995 48.1773399,72.4137931 L48.1773399,72.4137931 Z M50.8374384,66.2068966 L30.7389163,66.2068966 C30.2660099,66.2068966 29.8522167,66.6206897 29.8522167,67.0935961 C29.8522167,67.5665025 30.2660099,67.9802956 30.7389163,67.9802956 L50.8374384,67.9802956 C51.3103448,67.9802956 51.7241379,67.5665025 51.7241379,67.0935961 C51.7241379,66.6206897 51.3103448,66.2068966 50.8374384,66.2068966 L50.8374384,66.2068966 Z M45.5172414,63.8423645 C45.9901478,63.8423645 46.4039409,63.4285714 46.4039409,62.955665 C46.4039409,62.4827586 45.9901478,62.0689655 45.5172414,62.0689655 L39.6059113,62.0689655 C39.1330049,62.0689655 38.7192118,62.4827586 38.7192118,62.955665 C38.7192118,63.4285714 39.1330049,63.8423645 39.6059113,63.8423645 L45.5172414,63.8423645 Z M33.9901478,56.453202 C33.9901478,56.9261084 34.4039409,57.3399015 34.8768473,57.3399015 L50.8374384,57.3399015 C51.3103448,57.3399015 51.7241379,56.9261084 51.7241379,56.453202 C51.7241379,55.9802956 51.3103448,55.5665025 50.8374384,55.5665025 L34.8768473,55.5665025 C34.4039409,55.5665025 33.9901478,55.9802956 33.9901478,56.453202 L33.9901478,56.453202 Z M36.0591133,53.2019704 C36.5320197,53.2019704 36.9458128,52.7881773 36.9458128,52.3152709 C36.9458128,51.8423645 36.5320197,51.4285714 36.0591133,51.4285714 L30.1477833,51.4285714 C29.6748768,51.4285714 29.2610837,51.8423645 29.2610837,52.3152709 C29.2610837,52.7881773 29.6748768,53.2019704 30.1477833,53.2019704 L36.0591133,53.2019704 Z" id="Fill-14" fill="#FFFFFF" mask="url(#mask-2)"></path>
        <path d="M170.837438,82.1674877 L210.44335,82.1674877 L210.44335,54.9753695 L170.837438,54.9753695 L170.837438,82.1674877 Z M194.482759,109.950739 L60.8866995,109.950739 L60.8866995,30.8571429 C60.8866995,28.0197044 62.8965517,26.0098522 65.6748768,26.0098522 L189.753695,26.0098522 C192.472906,26.0098522 194.482759,28.0788177 194.482759,30.8571429 L194.482759,47.2906404 L192.70936,47.2906404 L192.70936,32.2167488 C192.70936,31.7438424 192.295567,31.3300493 191.82266,31.3300493 L63.546798,31.3300493 C63.0738916,31.3300493 62.6600985,31.7438424 62.6600985,32.2167488 L62.6600985,107.29064 C62.6600985,107.763547 63.0738916,108.17734 63.546798,108.17734 L191.82266,108.17734 C192.295567,108.17734 192.70936,107.763547 192.70936,107.29064 L192.70936,83.9408867 L194.482759,83.9408867 L194.482759,109.950739 Z M113.497537,111.724138 L140.098522,111.724138 L140.098522,112.433498 C140.098522,112.847291 140.098522,113.497537 138.679803,113.497537 L114.79803,113.497537 C113.55665,113.497537 113.497537,113.024631 113.497537,112.433498 L113.497537,111.724138 Z M202.758621,111.724138 L202.758621,113.261084 C202.758621,116.039409 200.512315,118.226601 197.73399,118.226601 L57.3399015,118.226601 C54.4433498,118.226601 52.0197044,115.980296 52.0197044,113.261084 L52.0197044,111.724138 L111.724138,111.724138 L111.724138,112.433498 C111.724138,114.206897 112.847291,115.270936 114.79803,115.270936 L138.679803,115.270936 C140.689655,115.270936 141.871921,114.206897 141.871921,112.433498 L141.871921,111.724138 L202.758621,111.724138 Z M24.8275862,47.2906404 L59.1133005,47.2906404 L59.1133005,109.950739 L51.1330049,109.950739 C50.6600985,109.950739 50.2463054,110.364532 50.2463054,110.837438 L50.2463054,111.724138 L24.8275862,111.724138 L24.8275862,47.2906404 Z M190.935961,47.2906404 L169.950739,47.2906404 C169.477833,47.2906404 169.064039,47.7044335 169.064039,48.1773399 L169.064039,83.0541872 C169.064039,83.5270936 169.477833,83.9408867 169.950739,83.9408867 L190.935961,83.9408867 L190.935961,106.403941 L64.4334975,106.403941 L64.4334975,33.1034483 L190.935961,33.1034483 L190.935961,47.2906404 Z M170.837438,53.2019704 L210.44335,53.2019704 L210.44335,49.0640394 L170.837438,49.0640394 L170.837438,53.2019704 Z M211.330049,47.2906404 L196.256158,47.2906404 L196.256158,30.8571429 C196.256158,27.0738916 193.477833,24.2364532 189.753695,24.2364532 L65.6748768,24.2364532 C61.9507389,24.2364532 59.1133005,27.0738916 59.1133005,30.8571429 L59.1133005,45.5172414 L23.9408867,45.5172414 C23.4679803,45.5172414 23.0541872,45.9310345 23.0541872,46.4039409 L23.0541872,112.610837 C23.0541872,113.083744 23.4679803,113.497537 23.9408867,113.497537 L50.2463054,113.497537 C50.364532,117.044335 53.5566502,120 57.2807882,120 L197.674877,120 C201.458128,120 204.472906,116.985222 204.472906,113.261084 L204.472906,110.837438 C204.472906,110.364532 204.059113,109.950739 203.586207,109.950739 L196.256158,109.950739 L196.256158,83.9408867 L211.330049,83.9408867 C211.802956,83.9408867 212.216749,83.5270936 212.216749,83.0541872 L212.216749,48.1773399 C212.216749,47.7044335 211.802956,47.2906404 211.330049,47.2906404 L211.330049,47.2906404 Z" id="Fill-15" fill="#FFFFFF" mask="url(#mask-2)"></path>
        <path d="M180.295567,63.7832512 C179.940887,63.4285714 179.408867,63.4876847 179.054187,63.8423645 C178.699507,64.1970443 178.758621,64.7881773 179.1133,65.0837438 L182.896552,68.6305419 L179.1133,72.0591133 C178.758621,72.4137931 178.758621,72.9458128 179.054187,73.3004926 C179.231527,73.4778325 179.46798,73.5960591 179.704433,73.5960591 C179.940887,73.5960591 180.118227,73.5369458 180.295567,73.3596059 L184.788177,69.2807882 C184.965517,69.1034483 185.083744,68.8669951 185.083744,68.6305419 C185.083744,68.3940887 184.965517,68.1576355 184.788177,67.9802956 L180.295567,63.7832512 Z" id="Fill-16" fill="#FFFFFF" mask="url(#mask-2)"></path>
    </g>
</svg>