
<svg width="248px" height="120px" viewBox="0 0 248 120" version="1.1" xmlns="http://www.w3.org/2000/svg" xmlns:xlink="http://www.w3.org/1999/xlink">
    <!-- Generator: Sketch 41.2 (35397) - http://www.bohemiancoding.com/sketch -->
    <desc>Created with Sketch.</desc>
    <defs>
        <polygon id="path-1" points="0 119.558769 248 119.558769 248 0 0 0"></polygon>
    </defs>
    <g id="Illustration" stroke="none" stroke-width="1" fill="none" fill-rule="evenodd">
        <path d="M142.707692,105.230769 L115.692308,105.230769 C116.061538,103.076923 116.307692,99.0769231 116.307692,99.0769231 L142.153846,99.0769231 C142.153846,99.0769231 142.153846,102.08 142.707692,105.230769 L142.707692,105.230769 Z" id="Fill-1" fill-opacity="0.3" fill="#FFFFFF"></path>
        <path d="M238.153846,20.2646154 C236.590769,20.2646154 235.323077,18.9907692 235.323077,17.4338462 C235.323077,15.8646154 236.590769,14.6030769 238.153846,14.6030769 C239.716923,14.6030769 240.984615,15.8646154 240.984615,17.4338462 C240.984615,18.9907692 239.716923,20.2646154 238.153846,20.2646154 M238.153846,12.4923077 C235.427692,12.4923077 233.218462,14.7076923 233.218462,17.4276923 C233.218462,20.1538462 235.433846,22.3630769 238.153846,22.3630769 C240.88,22.3630769 243.089231,20.1476923 243.089231,17.4276923 C243.089231,14.7076923 240.873846,12.4923077 238.153846,12.4923077" id="Fill-3" fill-opacity="0.7" fill="#FFFFFF"></path>
        <path d="M34.4430769,108.307692 C35.7926154,108.307692 36.8861538,109.409846 36.8861538,110.769231 C36.8861538,112.128615 35.7926154,113.230769 34.4430769,113.230769 C33.0935385,113.230769 32,112.128615 32,110.769231 C32,109.409846 33.0935385,108.307692 34.4430769,108.307692" id="Fill-5" fill-opacity="0.7" fill="#FFFFFF"></path>
        <path d="M14.7692308,60.9230769 L9.84615385,60.9230769 L9.84615385,56 C9.84615385,55.6615385 9.56923077,55.3846154 9.23076923,55.3846154 L6.15384615,55.3846154 C5.81538462,55.3846154 5.53846154,55.6615385 5.53846154,56 L5.53846154,60.9230769 L0.615384615,60.9230769 C0.276923077,60.9230769 0,61.2 0,61.5384615 L0,64.6153846 C0,64.9538462 0.276923077,65.2307692 0.615384615,65.2307692 L5.53846154,65.2307692 L5.53846154,70.1538462 C5.53846154,70.4923077 5.81538462,70.7692308 6.15384615,70.7692308 L9.23076923,70.7692308 C9.56923077,70.7692308 9.84615385,70.4923077 9.84615385,70.1538462 L9.84615385,65.2307692 L14.7692308,65.2307692 C15.1076923,65.2307692 15.3846154,64.9538462 15.3846154,64.6153846 L15.3846154,61.5384615 C15.3846154,61.2 15.1076923,60.9230769 14.7692308,60.9230769 M27.6923077,7.38461538 L26.5969231,4.77538462 L24,3.69230769 L26.5969231,2.46153846 L27.6923077,0 L28.7876923,2.46153846 L31.3846154,3.69230769 L28.7876923,4.77538462 M239.076923,70.7692308 L236.430769,64.4553846 L230.153846,61.8461538 L236.430769,58.8738462 L239.076923,52.9230769 L241.723077,58.8738462 L248,61.8461538 L241.723077,64.4553846" id="Fill-7" fill-opacity="0.7" fill="#FFFFFF"></path>
        <path d="M192.015323,12.4004308 L191.956862,12.4798154 L191.956862,18.6355077 L63.9568615,18.6355077 L63.9568615,12.7690462 C63.9568615,12.7690462 63.9291692,12.0687385 64.3722462,11.5948923 C64.6430154,11.3118154 65.0953231,11.2508923 65.6860923,11.2508923 L190.486092,11.2508923 C191.199938,11.2508923 191.6984,11.3118154 191.901477,11.5825846 C192.166092,11.9087385 192.015323,12.4004308 192.015323,12.4004308 L192.015323,12.4004308 Z M63.9568615,79.5585846 L191.956862,79.5585846 L191.956862,20.4816615 L63.9568615,20.4816615 L63.9568615,79.5585846 Z M190.4984,9.40473846 L65.6737846,9.40473846 C64.2584,9.40473846 63.4399385,9.86873846 63.0091692,10.3241231 C62.0860923,11.3210462 62.1107077,12.5413538 62.1107077,12.8428923 L62.1107077,81.4047385 L191.956862,81.4047385 L193.803015,81.4047385 L193.803015,12.7198154 C193.803015,12.3259692 194.039938,11.3702769 193.369169,10.4841231 C192.784554,9.68412308 191.833785,9.40473846 190.4984,9.40473846 L190.4984,9.40473846 Z" id="Fill-9" fill="#FFFFFF"></path>
        <path d="M198.725969,85.7126154 L57.1875077,85.7126154 L57.1875077,9.40492308 L57.2305846,9.40492308 C57.2305846,6.94338462 59.5690462,4.48184615 62.4613538,4.48184615 L193.538277,4.48184615 C196.430585,4.48184615 198.725969,6.64615385 198.725969,9.53846154 L198.725969,85.7126154 Z M192.725969,97.4049231 L143.999815,97.4049231 L62.4613538,97.4049231 C59.5690462,97.4049231 57.1875077,94.8923077 57.1875077,92 L57.1875077,87.5587692 L198.725969,87.5587692 L198.725969,91.3846154 C198.725969,94.7384615 196.059508,97.4049231 192.725969,97.4049231 L192.725969,97.4049231 Z M144.682892,112.789538 L144.676738,112.789538 L113.704431,112.789538 C114.565969,110.328 116.122892,105.404923 116.258277,99.2510769 L142.129046,99.2510769 C142.270585,105.404923 143.821354,110.328 144.682892,112.789538 L144.682892,112.789538 Z M104.572123,117.712615 L153.802892,117.712615 L153.802892,114.635692 L104.572123,114.635692 L104.572123,117.712615 Z M193.538277,2.63569231 L62.4613538,2.63569231 C58.5598154,2.63569231 55.3413538,5.63692308 55.3413538,9.53846154 L55.3413538,66.0203077 L55.3413538,92 C55.3413538,95.9015385 58.5598154,99.2510769 62.4613538,99.2510769 L114.418277,99.2510769 C114.258277,106.020308 112.362892,110.943385 111.698277,112.789538 L103.692123,112.789538 C103.181354,112.789538 102.725969,113.027692 102.725969,113.538462 L102.725969,118.461538 C102.725969,118.972308 103.181354,119.558769 103.692123,119.558769 L154.769046,119.558769 C155.279815,119.558769 155.649046,118.972308 155.649046,118.461538 L155.649046,113.538462 C155.649046,113.027692 155.279815,112.789538 154.769046,112.789538 L146.6952,112.789538 C146.042892,110.943385 144.172123,106.020308 144.018277,99.2510769 L192.572123,99.2510769 C197.802892,99.2510769 200.572123,95.6615385 200.572123,91.3846154 L200.572123,9.53846154 C200.572123,5.63692308 197.439815,2.63569231 193.538277,2.63569231 L193.538277,2.63569231 Z" id="Fill-11" fill="#FFFFFF"></path>
        <mask id="mask-2" fill="white">
            <use xlink:href="#path-1"></use>
        </mask>
        <g id="Clip-14"></g>
        <polygon id="Fill-13" fill-opacity="0.3" fill="#FFFFFF" mask="url(#mask-2)" points="72.2086154 72.408 82.7815385 72.408 82.7815385 59.5956923 72.2086154 59.5956923"></polygon>
        <polygon id="Fill-15" fill-opacity="0.3" fill="#FFFFFF" mask="url(#mask-2)" points="112.725538 72.408 123.298462 72.408 123.298462 45.8596923 112.725538 45.8596923"></polygon>
        <polygon id="Fill-16" fill-opacity="0.3" fill="#FFFFFF" mask="url(#mask-2)" points="132.627077 72.408 143.2 72.408 143.2 31.4516923 132.627077 31.4516923"></polygon>
        <polygon id="Fill-17" fill-opacity="0.3" fill="#FFFFFF" mask="url(#mask-2)" points="152.824 72.408 163.396923 72.408 163.396923 54.1975385 152.824 54.1975385"></polygon>
        <polygon id="Fill-18" fill-opacity="0.3" fill="#FFFFFF" mask="url(#mask-2)" points="173.062769 72.408 183.635692 72.408 183.635692 38.3944615 173.062769 38.3944615"></polygon>
        <polygon id="Fill-19" fill-opacity="0.3" fill="#FFFFFF" mask="url(#mask-2)" points="92.5163077 72.408 103.089231 72.408 103.089231 65.0172308 92.5163077 65.0172308"></polygon>
        <path d="M72.2646154,72.3526154 L82.7261538,72.3526154 L82.7261538,56.3076923 L72.2646154,56.3076923 L72.2646154,72.3526154 Z M70.4184615,74.1987692 L84.5723077,74.1987692 L84.5723077,54.4615385 L70.4184615,54.4615385 L70.4184615,74.1987692 Z" id="Fill-20" fill="#FFFFFF" mask="url(#mask-2)"></path>
        <path d="M152.88,72.3526154 L163.341538,72.3526154 L163.341538,50.9433846 L152.88,50.9433846 L152.88,72.3526154 Z M151.033846,74.1987692 L165.187692,74.1987692 L165.187692,49.0972308 L151.033846,49.0972308 L151.033846,74.1987692 Z" id="Fill-21" fill="#FFFFFF" mask="url(#mask-2)"></path>
        <path d="M173.118769,72.3526154 L183.580308,72.3526154 L183.580308,35.0892308 L173.118769,35.0892308 L173.118769,72.3526154 Z M171.272615,74.1987692 L185.426462,74.1987692 L185.426462,33.2430769 L171.272615,33.2430769 L171.272615,74.1987692 Z" id="Fill-22" fill="#FFFFFF" mask="url(#mask-2)"></path>
        <path d="M92.5723077,72.3526154 L103.033846,72.3526154 L103.033846,61.8910769 L92.5723077,61.8910769 L92.5723077,72.3526154 Z M90.7261538,74.1987692 L104.88,74.1987692 L104.88,60.0449231 L90.7261538,60.0449231 L90.7261538,74.1987692 Z" id="Fill-23" fill="#FFFFFF" mask="url(#mask-2)"></path>
        <path d="M112.781538,72.3526154 L123.243077,72.3526154 L123.243077,42.7433846 L112.781538,42.7433846 L112.781538,72.3526154 Z M110.935385,74.1987692 L125.089231,74.1987692 L125.089231,40.8972308 L110.935385,40.8972308 L110.935385,74.1987692 Z" id="Fill-24" fill="#FFFFFF" mask="url(#mask-2)"></path>
        <path d="M132.683077,72.3526154 L143.144615,72.3526154 L143.144615,28.2461538 L132.683077,28.2461538 L132.683077,72.3526154 Z M130.836923,74.1987692 L144.990769,74.1987692 L144.990769,26.4 L130.836923,26.4 L130.836923,74.1987692 Z" id="Fill-25" fill="#FFFFFF" mask="url(#mask-2)"></path>
        <path d="M109.737108,29.0972308 L70.3524923,29.0972308 C69.8417231,29.0972308 69.4294154,29.5095385 69.4294154,30.0203077 C69.4294154,30.5310769 69.8417231,30.9433846 70.3524923,30.9433846 L109.737108,30.9433846 C110.247877,30.9433846 110.660185,30.5310769 110.660185,30.0203077 C110.660185,29.5095385 110.247877,29.0972308 109.737108,29.0972308" id="Fill-26" fill="#FFFFFF" mask="url(#mask-2)"></path>
        <path d="M70.3524923,37.7126154 L102.967877,37.7126154 C103.478646,37.7126154 103.890954,37.3003077 103.890954,36.7895385 C103.890954,36.2787692 103.478646,35.8664615 102.967877,35.8664615 L70.3524923,35.8664615 C69.8417231,35.8664615 69.4294154,36.2787692 69.4294154,36.7895385 C69.4294154,37.3003077 69.8417231,37.7126154 70.3524923,37.7126154" id="Fill-27" fill="#FFFFFF" mask="url(#mask-2)"></path>
        <path d="M70.3524923,44.4818462 L86.9678769,44.4818462 C87.4786462,44.4818462 87.8909538,44.0695385 87.8909538,43.5587692 C87.8909538,43.048 87.4786462,42.6356923 86.9678769,42.6356923 L70.3524923,42.6356923 C69.8417231,42.6356923 69.4294154,43.048 69.4294154,43.5587692 C69.4294154,44.0695385 69.8417231,44.4818462 70.3524923,44.4818462" id="Fill-28" fill="#FFFFFF" mask="url(#mask-2)"></path>
    </g>
</svg>