
<svg width="192px" height="120px" viewBox="0 0 192 120" version="1.1" xmlns="http://www.w3.org/2000/svg" xmlns:xlink="http://www.w3.org/1999/xlink">
    <!-- Generator: Sketch 41.2 (35397) - http://www.bohemiancoding.com/sketch -->
    <desc>Created with Sketch.</desc>
    <defs>
        <polygon id="path-1" points="0 119.613861 191.352475 119.613861 191.352475 0 0 0"></polygon>
    </defs>
    <g id="Illustration" stroke="none" stroke-width="1" fill="none" fill-rule="evenodd">
        <path d="M27.9207921,116.643564 C25.6217822,116.643564 23.7623762,114.778218 23.7623762,112.485149 C23.7623762,110.186139 25.6217822,108.326733 27.9207921,108.326733 C30.219802,108.326733 32.0792079,110.186139 32.0792079,112.485149 C32.0792079,114.778218 30.219802,116.643564 27.9207921,116.643564 L27.9207921,116.643564 Z M27.9207921,105.356436 C23.9821782,105.356436 20.7920792,108.546535 20.7920792,112.485149 C20.7920792,116.423762 23.9881188,119.613861 27.9207921,119.613861 C31.8653465,119.613861 35.049505,116.423762 35.049505,112.485149 C35.049505,108.546535 31.8653465,105.356436 27.9207921,105.356436 L27.9207921,105.356436 Z M176.857426,19.7465347 L174.30297,13.6277228 L168.243564,11.0732673 L174.30297,8.16237624 L176.857426,2.4 L179.411881,8.1029703 L185.471287,10.9544554 L179.411881,13.449505 L176.857426,19.7465347 L176.857426,19.7465347 Z M186.760396,46.770297 L185.405941,43.5742574 L182.221782,42.2554455 L185.411881,40.7524752 L186.778218,37.7465347 L188.144554,40.7168317 L191.352475,42.2019802 L188.20396,43.5089109 L186.760396,46.770297 L186.760396,46.770297 Z" id="Fill-1" fill-opacity="0.7" fill="#FFFFFF"></path>
        <mask id="mask-2" fill="white">
            <use xlink:href="#path-1"></use>
        </mask>
        <g id="Clip-4"></g>
        <path d="M15.4455446,25.1584158 L36.2376238,25.1584158 L36.2376238,17.4356436 L15.4455446,17.4356436 L15.4455446,25.1584158 Z M105.742574,6.24950495 L105.742574,9.11881188 L100.39604,9.11881188 L100.39604,10.8891089 L100.990099,10.9009901 C113.988119,10.9009901 138.641584,21.1485149 140.673267,47.8752475 L140.661386,55.9069307 C139.205941,78.5227723 117.522772,91.6930693 101.584158,91.6930693 L63.5643564,91.6930693 L63.5643564,93.4752475 L65.9405941,93.4752475 L65.9405941,96.4455446 L99.2079208,96.4455446 L99.2079208,93.4752475 L105.742574,93.4752475 L105.742574,96.4455446 L107.524752,96.4455446 C120.665347,93.6653465 143.168317,85.4138614 145.544554,56.3465347 L145.544554,54.8613861 L141.980198,54.8613861 L141.980198,47.7326733 L145.544554,47.7326733 L145.544554,47.4356436 C143.168317,21.6712871 121.811881,8.61386139 105.742574,6.24950495 L105.742574,6.24950495 Z" id="Fill-3" fill-opacity="0.3" fill="#FFFFFF" mask="url(#mask-2)"></path>
        <path d="M6.53465347,97.6336634 L4.75247525,97.6336634 L4.75247525,95.8514851 C4.75247525,95.5247525 4.48514851,95.2574257 4.15841584,95.2574257 L2.97029703,95.2574257 C2.64356436,95.2574257 2.37623762,95.5247525 2.37623762,95.8514851 L2.37623762,97.6336634 L0.594059406,97.6336634 C0.267326733,97.6336634 0,97.9009901 0,98.2277228 L0,99.4158416 C0,99.7425743 0.267326733,100.009901 0.594059406,100.009901 L2.37623762,100.009901 L2.37623762,101.792079 C2.37623762,102.118812 2.64356436,102.386139 2.97029703,102.386139 L4.15841584,102.386139 C4.48514851,102.386139 4.75247525,102.118812 4.75247525,101.792079 L4.75247525,100.009901 L6.53465347,100.009901 C6.86138614,100.009901 7.12871287,99.7425743 7.12871287,99.4158416 L7.12871287,98.2277228 C7.12871287,97.9009901 6.86138614,97.6336634 6.53465347,97.6336634" id="Fill-5" fill-opacity="0.7" fill="#FFFFFF" mask="url(#mask-2)"></path>
        <path d="M158.613861,101.19802 C159.598218,101.19802 160.39604,101.995842 160.39604,102.980198 C160.39604,103.964554 159.598218,104.762376 158.613861,104.762376 C157.629505,104.762376 156.831683,103.964554 156.831683,102.980198 C156.831683,101.995842 157.629505,101.19802 158.613861,101.19802" id="Fill-6" fill-opacity="0.7" fill="#FFFFFF" mask="url(#mask-2)"></path>
        <polyline id="Fill-7" fill-opacity="0.7" fill="#FFFFFF" mask="url(#mask-2)" points="144.950495 50.7029703 148.514851 50.7029703 148.514851 48.9207921 141.980198 48.9207921 141.980198 54.8613861 144.950495 54.8613861"></polyline>
        <path d="M21.980198,81 L19.6039604,81 C18.6178218,81 17.8217822,80.2039604 17.8217822,79.2178218 L17.8217822,71.4950495 C17.8217822,70.5089109 18.6178218,69.7128713 19.6039604,69.7128713 L21.980198,69.7128713 L21.980198,81 Z M21.980198,63.1782178 L19.6039604,63.1782178 C18.6178218,63.1782178 17.8217822,62.3821782 17.8217822,61.3960396 L17.8217822,53.6732673 C17.8217822,52.6871287 18.6178218,51.8910891 19.6039604,51.8910891 L21.980198,51.8910891 L21.980198,63.1782178 Z M21.980198,45.950495 L19.6039604,45.950495 C18.6178218,45.950495 17.8217822,45.1544554 17.8217822,44.1683168 L17.8217822,36.4455446 C17.8217822,35.4594059 18.6178218,34.6633663 19.6039604,34.6633663 L21.980198,34.6633663 L21.980198,45.950495 Z M147.724752,53.8990099 C150.415842,55.039604 165.516832,61.1881188 165.516832,61.1881188 L160.241584,62.5544554 C159.469307,62.7326733 158.411881,63.6831683 159.635644,64.9069307 L160.586139,65.8574257 L169.90099,63.0653465 C169.90099,63.0653465 172.277228,60.6891089 169.740594,59.619802 C167.215842,58.550495 144.706931,50.0554455 144.706931,50.0554455 C144.706931,50.0554455 142.984158,51.9564356 147.677228,53.9762376 L147.724752,53.8990099 Z" id="Fill-8" fill-opacity="0.3" fill="#FFFFFF" mask="url(#mask-2)"></path>
        <path d="M21.980198,61.3960396 L29.7029703,61.3960396 L29.7029703,54.8613861 L21.980198,54.8613861 L21.980198,61.3960396 Z M21.980198,79.2178218 L29.7029703,79.2178218 L29.7029703,72.6831683 L21.980198,72.6831683 L21.980198,79.2178218 Z M21.980198,44.1683168 L29.7029703,44.1683168 L29.7029703,37.6336634 L21.980198,37.6336634 L21.980198,44.1683168 Z" id="Fill-9" fill-opacity="0.7" fill="#FFFFFF" mask="url(#mask-2)"></path>
        <path d="M15.4455446,84.8613861 L15.4455446,26.3465347 L36.2376238,26.3465347 L36.2376238,84.8613861 C36.2376238,86.0079208 35.3049505,86.9405941 34.1584158,86.9405941 L17.5247525,86.9405941 C16.3782178,86.9405941 15.4455446,86.0079208 15.4455446,84.8613861 L15.4455446,84.8613861 Z M17.5247525,17.4356436 L34.1584158,17.4356436 C35.3049505,17.4356436 36.2376238,18.3683168 36.2376238,19.5148515 L36.2376238,24.5643564 L15.4455446,24.5643564 L15.4455446,19.5148515 C15.4455446,18.3683168 16.3782178,17.4356436 17.5247525,17.4356436 L17.5247525,17.4356436 Z M34.1584158,88.7227723 C36.2851485,88.7227723 38.019802,86.9881188 38.019802,84.8613861 L38.019802,19.5148515 C38.019802,17.3881188 36.2851485,15.6534653 34.1584158,15.6534653 L17.5247525,15.6534653 C15.3980198,15.6534653 13.6633663,17.3881188 13.6633663,19.5148515 L13.6633663,84.8613861 C13.6633663,86.9881188 15.3980198,88.7227723 17.5247525,88.7227723 L34.1584158,88.7227723 Z M63.5643564,91.6930693 L63.5643564,10.9009901 L66.8316832,10.9009901 C67.3247525,10.9009901 67.7227723,10.5029703 67.7227723,10.009901 L67.7227723,6.74257426 L97.4257426,6.74257426 L97.4257426,10.009901 C97.4257426,10.5029703 97.8237624,10.9009901 98.3168317,10.9009901 L106.633663,10.9009901 C107.126733,10.9009901 107.524752,10.5029703 107.524752,10.009901 L107.524752,7.60990099 C115.093069,9.08316832 141.10099,16.2356436 144.356436,45.1128713 L144.356436,45.9445545 L141.089109,45.9445545 C140.59604,45.9445545 140.19802,46.3009901 140.19802,46.8356436 L140.19802,55.7465347 C140.19802,56.2217822 140.59604,56.6376238 141.089109,56.6376238 L144.356436,56.6376238 L144.356436,57.350495 C141.522772,83.429703 120.653465,92.2811881 107.524752,95.3108911 L107.524752,92.5188119 C107.524752,91.9841584 107.126733,91.6277228 106.633663,91.6277228 L98.3168317,91.6277228 C97.8237624,91.6277228 97.4257426,91.9841584 97.4257426,92.5188119 L97.4257426,96.380198 L67.7227723,96.380198 L67.7227723,92.5188119 C67.7227723,91.9841584 67.3247525,91.6277228 66.8316832,91.6277228 L63.5643564,91.6277228 L63.5643564,91.6930693 Z M59.4059406,100.60396 L65.9405941,100.60396 L65.9405941,93.4752475 L59.4059406,93.4752475 L59.4059406,100.60396 Z M59.4059406,9.11881188 L65.9405941,9.11881188 L65.9405941,1.99009901 L59.4059406,1.99009901 L59.4059406,9.11881188 Z M99.2079208,9.11881188 L105.742574,9.11881188 L105.742574,1.99009901 L99.2079208,1.99009901 L99.2079208,9.11881188 Z M148.514851,49.8712871 L147.469307,49.4376238 C146.120792,48.8792079 144.932673,49.0217822 144.124752,49.8118812 C143.708911,50.2752475 143.055446,51.3326733 143.768317,53.1386139 L144.481188,54.8732673 L141.980198,54.8732673 L141.980198,47.7445545 L148.514851,47.7445545 L148.514851,49.8712871 L148.514851,49.8712871 Z M170.20396,61.5623762 C170.20396,62.019802 169.788119,62.4831683 169.372277,62.590099 C167.946535,63.0059406 160.40198,64.9663366 160.045545,65.0851485 C159.748515,65.2039604 159.510891,65.4415842 159.451485,65.7386139 L157.015842,75.0653465 C156.89703,75.5405941 156.421782,75.9564356 155.946535,75.9564356 C155.471287,75.9564356 155.114851,75.4811881 154.936634,75.0653465 C153.748515,72.3326733 147.213861,56.649505 145.550495,52.550495 C145.372277,52.1346535 145.194059,51.4811881 145.550495,51.1841584 C145.728713,51.0653465 145.847525,51.0059406 146.085149,51.0059406 C146.322772,51.0059406 146.619802,51.1247525 146.976238,51.2435644 C151.015842,52.9663366 166.758416,59.5009901 169.491089,60.6891089 C169.906931,60.8673267 170.441584,61.2237624 170.382178,61.8 L170.20396,61.5623762 Z M146.994059,87.8316832 C146.994059,88.3069307 146.774257,88.7524752 146.441584,89.0910891 C146.144554,89.4237624 145.609901,89.6138614 145.134653,89.6138614 L144.956436,90.5049505 L144.956436,89.6138614 C144.362376,89.6138614 143.352475,88.8237624 143.352475,87.849505 C143.352475,87.1782178 143.827723,86.6019802 144.421782,86.2871287 L144.421782,86.3465347 L146.20396,86.3465347 L146.20396,86.3108911 C146.738614,86.619802 147.09505,87.1841584 147.09505,87.8316832 L146.994059,87.8316832 Z M99.2079208,100.60396 L105.742574,100.60396 L105.742574,93.4752475 L99.2079208,93.4752475 L99.2079208,100.60396 Z M143.316832,12.4039604 C143.316832,11.4237624 144.255446,10.6217822 145.247525,10.6217822 C146.227723,10.6217822 146.952475,11.4059406 146.952475,12.3861386 C146.952475,13.3663366 146.091089,14.1683168 145.110891,14.1683168 L144.950495,15.0594059 L144.950495,14.1683168 C144.356436,14.1683168 143.322772,13.3782178 143.316832,12.4039604 L143.316832,12.4039604 Z M97.4257426,98.2277228 L97.4257426,101.49505 C97.4257426,101.988119 97.8237624,102.386139 98.3168317,102.386139 L106.633663,102.386139 C107.126733,102.386139 107.524752,101.988119 107.524752,101.49505 L107.524752,97.1762376 C119.524752,94.5148515 138.118812,87.0772277 144.356436,66.4633663 L144.356436,84.4752475 C142.811881,84.8910891 141.683168,86.3405941 141.683168,88.0039604 C141.69505,89.9049505 143.287129,91.6871287 145.247525,91.6871287 L145.265347,91.6871287 C146.215842,91.0930693 147.106931,91.1524752 147.778218,90.4990099 C148.449505,89.7861386 148.817822,88.7762376 148.811881,87.8257426 C148.8,86.1623762 147.671287,84.7960396 146.138614,84.439604 L146.138614,58.8356436 C148.633663,64.8356436 152.293069,73.6277228 153.172277,75.6475248 C153.724752,76.8950495 154.687129,77.6079208 155.827723,77.6079208 C157.134653,77.6079208 158.382178,76.6574257 158.679208,75.409901 C158.976238,74.1623762 160.520792,68.3405941 160.99604,66.5584158 C162.778218,66.0831683 168.6,64.5386139 169.847525,64.2415842 C171.035644,63.9445545 171.986139,62.8158416 172.045545,61.6277228 C172.164356,60.380198 171.451485,59.3108911 170.085149,58.7168317 C167.827723,57.7069307 156.421782,52.9544554 150.362376,50.4594059 L150.362376,46.7168317 C150.362376,46.1821782 150.005941,45.8257426 149.471287,45.8257426 L146.322772,45.8257426 L146.263366,44.8752475 L146.263366,15.8257426 C147.807921,15.1722772 148.936634,14.1029703 148.936634,12.439604 C148.936634,10.4792079 147.332673,8.75643564 145.372277,8.75643564 C143.411881,8.75643564 141.867327,10.419802 141.867327,12.380198 C141.926733,14.0079208 143.055446,15.4930693 144.540594,15.9445545 L144.540594,36.0594059 C137.411881,12.7722772 114.362376,6.83168317 107.708911,5.58415842 L107.708911,0.891089109 C107.708911,0.398019802 107.352475,0 106.817822,0 L98.5009901,0 C98.0257426,0 97.609901,0.398019802 97.609901,0.891089109 L97.609901,4.75247525 L67.9069307,4.75247525 L67.9069307,0.891089109 C67.9069307,0.398019802 67.550495,0 67.0158416,0 L58.6990099,0 C58.2237624,0 57.8079208,0.398019802 57.8079208,0.891089109 L57.8079208,9.8019802 C57.8079208,10.2950495 58.2237624,10.6930693 58.6990099,10.6930693 L61.9663366,10.6930693 L61.9663366,91.4851485 L58.6990099,91.4851485 C58.2237624,91.4851485 57.8079208,91.8831683 57.8079208,92.3762376 L57.8079208,101.287129 C57.8079208,101.780198 58.2237624,102.178218 58.6990099,102.178218 L67.0158416,102.178218 C67.550495,102.178218 67.9069307,101.780198 67.9069307,101.287129 L67.9069307,98.2277228 L97.609901,98.2277228 L97.4257426,98.2277228 Z" id="Fill-10" fill="#FFFFFF" mask="url(#mask-2)"></path>
        <path d="M21.980198,53.970297 C21.980198,53.8039604 22.1108911,53.6732673 22.2772277,53.6732673 L29.4059406,53.6732673 C29.5722772,53.6732673 29.7029703,53.8039604 29.7029703,53.970297 L29.7029703,61.0990099 C29.7029703,61.2653465 29.5722772,61.3960396 29.4059406,61.3960396 L22.2772277,61.3960396 C22.1108911,61.3960396 21.980198,61.2594059 21.980198,61.0990099 L21.980198,53.970297 Z M22.2772277,63.1782178 L29.4059406,63.1782178 C30.5524752,63.1782178 31.4851485,62.2455446 31.4851485,61.0990099 L31.4851485,53.970297 C31.4851485,52.8237624 30.5524752,51.8910891 29.4059406,51.8910891 L22.2772277,51.8910891 C21.1306931,51.8910891 20.1980198,52.8237624 20.1980198,53.970297 L20.1980198,61.0990099 C20.1980198,62.2455446 21.1306931,63.1782178 22.2772277,63.1782178 L22.2772277,63.1782178 Z M21.980198,71.7920792 C21.980198,71.6257426 22.1108911,71.4950495 22.2772277,71.4950495 L29.4059406,71.4950495 C29.5722772,71.4950495 29.7029703,71.6316832 29.7029703,71.7920792 L29.7029703,78.9207921 C29.7029703,79.0871287 29.5722772,79.2178218 29.4059406,79.2178218 L22.2772277,79.2178218 C22.1108911,79.2178218 21.980198,79.0811881 21.980198,78.9207921 L21.980198,71.7920792 Z M22.2772277,81 L29.4059406,81 C30.5524752,81 31.4851485,80.0673267 31.4851485,78.9207921 L31.4851485,71.7920792 C31.4851485,70.6455446 30.5524752,69.7128713 29.4059406,69.7128713 L22.2772277,69.7128713 C21.1306931,69.7128713 20.1980198,70.6455446 20.1980198,71.7920792 L20.1980198,78.9207921 C20.1980198,80.0673267 21.1306931,81 22.2772277,81 L22.2772277,81 Z M21.980198,36.7425743 C21.980198,36.5762376 22.1108911,36.4455446 22.2772277,36.4455446 L29.4059406,36.4455446 C29.5722772,36.4455446 29.7029703,36.5762376 29.7029703,36.7425743 L29.7029703,43.8712871 C29.7029703,44.0376238 29.5722772,44.1683168 29.4059406,44.1683168 L22.2772277,44.1683168 C22.1108911,44.1683168 21.980198,44.0376238 21.980198,43.8712871 L21.980198,36.7425743 Z M22.2772277,45.950495 L29.4059406,45.950495 C30.5524752,45.950495 31.4851485,45.0178218 31.4851485,43.8712871 L31.4851485,36.7425743 C31.4851485,35.5960396 30.5524752,34.6633663 29.4059406,34.6633663 L22.2772277,34.6633663 C21.1306931,34.6633663 20.1980198,35.5960396 20.1980198,36.7425743 L20.1980198,43.8712871 C20.1980198,45.0178218 21.1306931,45.950495 22.2772277,45.950495 L22.2772277,45.950495 Z M81.3861386,83.3762376 L87.9207921,83.3762376 L87.9207921,76.2475248 L81.3861386,76.2475248 L81.3861386,83.3762376 Z M85.5445545,28.7227723 L88.8118812,28.7227723 C89.3049505,28.7227723 89.7029703,28.3247525 89.7029703,27.8316832 L89.7029703,24.5643564 L97.3069307,24.5643564 C97.3663366,24.5643564 103.330693,24.3742574 109.568317,27.0237624 C117.629703,30.4455446 122.358416,36.8257426 123.647525,45.950495 L120.29703,45.950495 C119.80396,45.950495 119.405941,46.3485149 119.405941,46.8415842 L119.405941,55.7524752 C119.405941,56.2455446 119.80396,56.6435644 120.29703,56.6435644 L123.623762,56.6435644 C120.451485,78.5643564 98.2752475,78.6237624 97.2831683,78.6237624 L89.7029703,78.6237624 L89.7029703,75.3564356 C89.7029703,74.8633663 89.3049505,74.4653465 88.8118812,74.4653465 L85.5445545,74.4653465 L85.5445545,28.7227723 Z M81.3861386,26.9405941 L87.9207921,26.9405941 L87.9207921,19.8118812 L81.3861386,19.8118812 L81.3861386,26.9405941 Z M121.188119,54.8613861 L127.722772,54.8613861 L127.722772,47.7326733 L121.188119,47.7326733 L121.188119,54.8613861 Z M80.4950495,85.1584158 L88.8118812,85.1584158 C89.3049505,85.1584158 89.7029703,84.760396 89.7029703,84.2673267 L89.7029703,80.4059406 L97.2831683,80.4059406 C98.0138614,80.4059406 122.209901,80.1564356 125.441584,56.6435644 L128.613861,56.6435644 C129.106931,56.6435644 129.50495,56.2455446 129.50495,55.7524752 L129.50495,46.8415842 C129.50495,46.3485149 129.106931,45.950495 128.613861,45.950495 L125.453465,45.950495 C122.263366,22.1405941 97.4970297,22.7821782 97.2831683,22.7821782 L89.7029703,22.7821782 L89.7029703,18.9207921 C89.7029703,18.4277228 89.3049505,18.029703 88.8118812,18.029703 L80.4950495,18.029703 C80.0019802,18.029703 79.6039604,18.4277228 79.6039604,18.9207921 L79.6039604,27.8316832 C79.6039604,28.3247525 80.0019802,28.7227723 80.4950495,28.7227723 L83.7623762,28.7227723 L83.7623762,74.4653465 L80.4950495,74.4653465 C80.0019802,74.4653465 79.6039604,74.8633663 79.6039604,75.3564356 L79.6039604,84.2673267 C79.6039604,84.760396 80.0019802,85.1584158 80.4950495,85.1584158 L80.4950495,85.1584158 Z M18.1188119,20.8811881 L17.2277228,21.7722772 C16.8712871,22.1287129 16.8712871,22.6930693 17.2277228,23.0376238 C17.3940594,23.2158416 17.6257426,23.2990099 17.8514851,23.2990099 C18.0772277,23.2990099 18.3089109,23.2158416 18.4811881,23.0376238 L19.4316832,22.1465347 L20.3227723,23.0376238 C20.5009901,23.2158416 20.7386139,23.2990099 20.9762376,23.2990099 C21.2138614,23.2990099 21.4514851,23.2158416 21.629703,23.0376238 C21.9861386,22.6930693 21.9861386,22.1287129 21.629703,21.7782178 L20.7386139,20.8871287 L21.7485149,19.8772277 C22.1049505,19.580198 22.1049505,18.9861386 21.7485149,18.629703 C21.3920792,18.2732673 20.8574257,18.2732673 20.5009901,18.629703 L19.4910891,19.639604 L18.4811881,18.629703 C18.1247525,18.2732673 17.590099,18.2732673 17.2336634,18.629703 C16.9366337,18.9861386 16.9366337,19.580198 17.2336634,19.8772277 L18.2435644,20.8871287 L18.1188119,20.8811881 Z" id="Fill-11" fill="#FFFFFF" mask="url(#mask-2)"></path>
    </g>
</svg>