
<svg width="192px" height="120px" viewBox="142 300 192 120" version="1.1" xmlns="http://www.w3.org/2000/svg" xmlns:xlink="http://www.w3.org/1999/xlink">
    <!-- Generator: Sketch 41.2 (35397) - http://www.bohemiancoding.com/sketch -->
    <desc>Created with Sketch.</desc>
    <defs>
        <polygon id="path-1" points="178.161576 46.8915665 178.161576 0.396059113 0.106403941 0.396059113 0.106403941 93.3870739 178.161576 93.3870739"></polygon>
        <polygon id="path-3" points="0 119.603941 190.575369 119.603941 190.575369 0.591133005 0 0.591133005"></polygon>
    </defs>
    <g id="Illustration" stroke="none" stroke-width="1" fill="none" fill-rule="evenodd" transform="translate(142.000000, 300.000000)">
        <g id="Group-3" transform="translate(12.413793, 0.195074)">
            <mask id="mask-2" fill="white">
                <use xlink:href="#path-1"></use>
            </mask>
            <g id="Clip-2"></g>
            <path d="M7.2,90.4314089 C4.91231527,90.4314089 3.06206897,88.5752512 3.06206897,86.2934778 C3.06206897,84.0057931 4.91231527,82.1555468 7.2,82.1555468 C9.48768473,82.1555468 11.337931,84.0057931 11.337931,86.2934778 C11.337931,88.5752512 9.48768473,90.4314089 7.2,90.4314089 M7.2,79.1998818 C3.28078818,79.1998818 0.106403941,82.374266 0.106403941,86.2934778 C0.106403941,90.2126897 3.28669951,93.3870739 7.2,93.3870739 C11.1251232,93.3870739 14.2935961,90.2126897 14.2935961,86.2934778 C14.2935961,82.374266 11.1251232,79.1998818 7.2,79.1998818 M169.590148,17.6570246 L167.048276,11.5683547 L161.018719,9.02648276 L167.048276,6.12993103 L169.590148,0.395940887 L172.13202,6.07081773 L178.161576,8.90825616 L172.13202,11.3910148 M161.710345,44.547665 L160.362562,41.3673695 L157.194089,40.0550542 L160.368473,38.5594877 L161.728079,35.5683547 L163.087685,38.5240197 L166.279803,40.0018522 L163.146798,41.3023448" id="Fill-1" fill-opacity="0.7" fill="#FFFFFF" mask="url(#mask-2)"></path>
        </g>
        <path d="M9.45812808,29.7397833 L6.50246305,29.7397833 L6.50246305,26.7841182 C6.50246305,26.4589951 6.2364532,26.1929852 5.91133005,26.1929852 L4.13793103,26.1929852 C3.81280788,26.1929852 3.54679803,26.4589951 3.54679803,26.7841182 L3.54679803,29.7397833 L0.591133005,29.7397833 C0.266009852,29.7397833 0,30.0057931 0,30.3309163 L0,32.1043153 C0,32.4294384 0.266009852,32.6954483 0.591133005,32.6954483 L3.54679803,32.6954483 L3.54679803,35.6511133 C3.54679803,35.9762365 3.81280788,36.2422463 4.13793103,36.2422463 L5.91133005,36.2422463 C6.2364532,36.2422463 6.50246305,35.9762365 6.50246305,35.6511133 L6.50246305,32.6954483 L9.45812808,32.6954483 C9.78325123,32.6954483 10.0492611,32.4294384 10.0492611,32.1043153 L10.0492611,30.3309163 C10.0492611,30.0057931 9.78325123,29.7397833 9.45812808,29.7397833" id="Fill-4" fill-opacity="0.7" fill="#FFFFFF"></path>
        <path d="M31.9211823,0.77426601 C33.2269951,0.77426601 34.2857143,1.83298522 34.2857143,3.13879803 C34.2857143,4.44461084 33.2269951,5.50333005 31.9211823,5.50333005 C30.6153695,5.50333005 29.5566502,4.44461084 29.5566502,3.13879803 C29.5566502,1.83298522 30.6153695,0.77426601 31.9211823,0.77426601" id="Fill-6" fill-opacity="0.7" fill="#FFFFFF"></path>
        <mask id="mask-4" fill="white">
            <use xlink:href="#path-3"></use>
        </mask>
        <g id="Clip-9"></g>
        <polygon id="Fill-8" fill-opacity="0.7" fill="#FFFFFF" mask="url(#mask-4)" points="43.2591133 78.8258128 116.559606 78.8258128 116.559606 75.2790148 43.2591133 75.2790148"></polygon>
        <polygon id="Fill-10" fill-opacity="0.7" fill="#FFFFFF" mask="url(#mask-4)" points="43.2591133 49.2691626 149.663054 49.2691626 149.663054 45.7223645 43.2591133 45.7223645"></polygon>
        <polygon id="Fill-11" fill-opacity="0.7" fill="#FFFFFF" mask="url(#mask-4)" points="148.348552 69.3560985 144.801754 68.1738325 144.801754 21.9377734 148.348552 21.9377734"></polygon>
        <polygon id="Fill-12" fill-opacity="0.7" fill="#FFFFFF" mask="url(#mask-4)" points="122.470936 109.07332 47.9881773 108.482187 43.2591133 104.935389 120.106404 104.935389"></polygon>
        <polygon id="Fill-13" fill-opacity="0.3" fill="#FFFFFF" mask="url(#mask-4)" points="149.663054 20.8931823 43.2591133 20.8931823 61.6989163 2.85594089 131.240985 2.54796059"></polygon>
        <polygon id="Fill-14" fill-opacity="0.3" fill="#FFFFFF" mask="url(#mask-4)" points="52.911133 40.5942857 62.9603941 40.5942857 62.9603941 32.3184236 52.911133 32.3184236"></polygon>
        <polygon id="Fill-15" fill-opacity="0.3" fill="#FFFFFF" mask="url(#mask-4)" points="52.911133 69.9144828 62.9603941 69.9144828 62.9603941 61.6386207 52.911133 61.6386207"></polygon>
        <polygon id="Fill-16" fill-opacity="0.3" fill="#FFFFFF" mask="url(#mask-4)" points="52.911133 98.6104433 62.9603941 98.6104433 62.9603941 90.3345813 52.911133 90.3345813"></polygon>
        <path d="M162.792118,83.2038621 L162.792118,76.1226798 C162.792118,75.0509557 162.311527,73.7144039 160.334187,73.4602167 C159.913892,73.4052414 159.464039,73.3609064 159.054975,73.305931 C158.814384,73.2787389 158.728079,73.2509557 158.492808,73.2231724 C158.499901,73.3254384 158.654187,73.4271133 158.654187,73.5258325 L158.654187,81.0385419 L158.654187,83.7465222 L158.654187,83.8984433 L158.654187,83.9924335 L158.654187,91.6221872 L158.654187,91.6694778 C158.654187,92.5715468 158.433695,93.3808079 158.400591,94.1421872 C158.235074,97.9750936 156.848867,101.596966 154.341281,105.206424 C151.490837,109.308887 147.555665,112.707901 142.396847,115.60268 C140.839212,116.469872 139.202956,117.208197 137.634089,117.923468 C137.554877,117.960709 137.463842,117.996177 137.384631,118.032236 C137.807291,118.203074 138.214581,118.379232 138.649064,118.542975 C138.936355,118.653517 139.264433,118.708493 139.607291,118.708493 C140.026995,118.708493 140.467389,118.620414 140.832118,118.454897 C141.207488,118.288788 141.582266,118.134502 141.957635,117.968394 C143.526502,117.294502 145.139113,116.598739 146.696749,115.781202 C151.855567,113.052532 155.744039,109.849182 158.593892,105.982581 C161.101478,102.58002 162.477044,99.1668177 162.643153,95.5544039 C162.675665,94.8361773 162.792118,94.0742069 162.792118,93.2235665 L162.792118,93.1792315 L162.792118,85.9875074 L162.792118,85.8994286 L162.792118,85.7557833 L162.792118,83.2038621 Z" id="Fill-17" fill-opacity="0.3" fill="#FFFFFF" mask="url(#mask-4)"></path>
        <path d="M162.330266,93.2120985 C162.319034,94.0515074 162.297754,94.8040197 162.265241,95.5139704 C162.106818,98.9543645 160.86603,102.206778 158.471941,105.456828 C155.701892,109.212887 151.908,112.334069 146.875094,114.996532 C145.322187,115.811113 143.662286,116.525202 142.190365,117.157714 C142.00534,117.239291 141.821498,117.31732 141.637064,117.395941 C141.446128,117.477517 141.254601,117.559685 141.055389,117.647172 C140.616768,117.846975 139.971251,117.87535 139.547409,117.713379 C138.827409,117.442049 138.128099,117.158305 137.442384,116.866877 C137.181695,116.756926 136.931054,116.640473 136.675094,116.526975 C136.267212,116.346089 135.860512,116.163429 135.464453,115.974857 C135.146424,115.823527 134.834305,115.667468 134.523961,115.511409 C134.218345,115.357714 133.915685,115.201655 133.618345,115.043232 C133.265438,114.856433 132.91667,114.66668 132.574404,114.472788 C132.357458,114.349833 132.145241,114.22333 131.932433,114.097419 C131.537557,113.864512 131.143862,113.630424 130.762581,113.38865 C130.708788,113.354365 130.65736,113.318305 130.604158,113.28402 C128.295192,111.801458 126.225635,110.150424 124.386621,108.296631 C121.336966,105.225103 119.459527,102.001064 118.646128,98.4394877 C118.289675,96.8735764 118.302089,95.3543645 118.291448,93.920867 C118.243567,89.2710148 118.456966,84.5419507 118.456966,80.9389951 L118.456966,76.3322956 C118.456966,74.9106207 118.707015,74.4253005 120.099133,74.334266 C126.36869,73.9488473 132.317852,71.6316059 138.966916,67.0414581 C139.561596,66.6270739 139.737754,66.3935764 140.328887,66.3935764 L140.328887,66.3959409 C140.328887,66.3959409 140.298148,66.3935764 140.304059,66.3935764 C140.741498,66.3935764 141.027015,66.6040197 141.670759,67.0520985 C144.037064,68.6978128 146.268,70.0249064 148.49066,71.0830345 C149.083567,71.3650049 149.66997,71.6286502 150.25933,71.872197 C150.601005,72.0134778 150.939133,72.1423448 151.280217,72.2712118 C151.465833,72.3409655 151.650266,72.4119015 151.835291,72.4781084 C152.127901,72.5827389 152.419921,72.6820493 152.712532,72.7778128 C152.986227,72.8670739 153.260512,72.9516059 153.534207,73.0325911 C153.758837,73.0999803 153.983468,73.1685517 154.20869,73.2300296 C154.72534,73.3713103 155.242581,73.5037241 155.763369,73.6184039 C156.955685,73.8891429 158.16869,74.0357438 159.496966,74.1847094 C159.716867,74.214266 159.939724,74.240867 160.164355,74.267468 C160.358246,74.2905222 160.761399,74.3135764 160.959429,74.3395862 C162.083172,74.4838227 162.791941,75.0341675 162.791941,76.1230345 L162.791941,83.2036256 L162.594502,85.7561379 L162.330266,93.2120985 Z M52.4321379,108.394167 C47.8626798,108.394167 43.9742069,104.347862 43.9742069,99.7784039 L43.9742069,80.4832315 L116.683567,80.6446108 L116.683567,80.9366305 C116.683567,84.5425419 116.470167,89.2792906 116.518049,93.9368276 C116.529281,95.4944631 116.630956,97.1590936 117.016374,98.8503251 C117.800217,102.284808 119.376177,105.438502 122.015586,108.394167 L52.4321379,108.394167 Z M43.9742069,50.9011626 L148.604749,51.1346601 L148.604749,69.1027389 C146.83135,68.1480591 144.716276,66.9929852 142.695192,65.5872709 C142.01066,65.112 141.272926,64.6201773 140.259724,64.6201773 C139.24002,64.6201773 138.519429,65.1108177 137.839626,65.5837241 C131.470759,69.9811626 125.931251,72.1996847 119.995094,72.5644138 C117.67135,72.7157438 116.683567,73.9837241 116.683567,76.3322956 L116.683567,78.8712118 L43.9742069,78.7098325 L43.9742069,50.9011626 Z M43.9742069,22.0887488 L148.604749,22.0887488 L148.604749,49.3612611 L43.9742069,49.1277635 L43.9742069,22.0887488 Z M60.9225813,4.87318227 C61.6479015,4.15140887 62.6114483,3.76362562 63.6341084,3.76362562 L129.288296,3.76362562 C130.310956,3.76362562 131.274502,4.15140887 131.999232,4.87318227 L147.515882,20.3153498 L45.405931,20.3153498 L60.9225813,4.87318227 Z M160.980118,72.5815567 C160.777951,72.5549557 160.575192,72.5307192 160.373616,72.5070739 C160.159034,72.481064 159.945635,72.4556453 159.714502,72.4249064 C158.420512,72.2794877 157.321005,72.1393892 156.212039,71.8875665 C154.235291,71.4530837 152.151547,70.8034286 150.378148,69.938601 L150.378148,20.525202 L133.165537,3.46214778 C132.105044,2.40697537 130.783271,1.9902266 129.288296,1.9902266 L63.6341084,1.9902266 C62.139133,1.9902266 60.645931,2.40697537 59.5854384,3.46214778 L42.2008079,20.525202 L42.2008079,99.7784039 C42.2008079,105.325596 46.8849458,110.167567 52.4321379,110.167567 L123.747606,110.167567 C127.770857,114.305498 132.735783,117.056631 138.91667,119.388059 C139.299133,119.53466 139.7413,119.603823 140.195291,119.603823 C140.749182,119.603823 141.314897,119.481458 141.779527,119.269833 C141.964552,119.188847 142.148394,119.107862 142.332828,119.029241 C142.523764,118.948256 142.715291,118.864906 142.897951,118.784512 C144.391744,118.142542 146.08534,117.414266 147.702089,116.56599 C152.978542,113.77466 156.968099,110.485005 159.899527,106.509044 C162.508788,102.966975 163.861892,99.3971232 164.036276,95.5955468 C164.070562,94.8613596 164.148,76.1230345 164.148,76.1230345 C164.148,74.1309163 162.992335,72.8398818 160.980118,72.5815567 L160.980118,72.5815567 Z" id="Fill-18" fill="#FFFFFF" mask="url(#mask-4)"></path>
        <path d="M52.8413793,40.4139901 L62.8906404,40.4139901 L62.8906404,30.3647291 L52.8413793,30.3647291 L52.8413793,40.4139901 Z M64.6640394,30.0691626 C64.6640394,29.2528079 64.0025616,28.59133 63.1862069,28.59133 L52.5458128,28.59133 C51.7294581,28.59133 51.0679803,29.2528079 51.0679803,30.0691626 L51.0679803,40.7095567 C51.0679803,41.5259113 51.7294581,42.1873892 52.5458128,42.1873892 L63.1862069,42.1873892 C64.0025616,42.1873892 64.6640394,41.5259113 64.6640394,40.7095567 L64.6640394,30.0691626 Z" id="Fill-19" fill="#FFFFFF" mask="url(#mask-4)"></path>
        <path d="M52.8413793,69.9706404 L62.8906404,69.9706404 L62.8906404,59.9213793 L52.8413793,59.9213793 L52.8413793,69.9706404 Z M64.6640394,59.6258128 C64.6640394,58.8094581 64.0025616,58.1479803 63.1862069,58.1479803 L52.5458128,58.1479803 C51.7294581,58.1479803 51.0679803,58.8094581 51.0679803,59.6258128 L51.0679803,70.2662069 C51.0679803,71.0825616 51.7294581,71.7440394 52.5458128,71.7440394 L63.1862069,71.7440394 C64.0025616,71.7440394 64.6640394,71.0825616 64.6640394,70.2662069 L64.6640394,59.6258128 Z" id="Fill-20" fill="#FFFFFF" mask="url(#mask-4)"></path>
        <path d="M52.8413793,98.3450246 L62.8906404,98.3450246 L62.8906404,88.2957635 L52.8413793,88.2957635 L52.8413793,98.3450246 Z M64.6640394,88.000197 C64.6640394,87.1838424 64.0025616,86.5223645 63.1862069,86.5223645 L52.5458128,86.5223645 C51.7294581,86.5223645 51.0679803,87.1838424 51.0679803,88.000197 L51.0679803,98.6405911 C51.0679803,99.4569458 51.7294581,100.118424 52.5458128,100.118424 L63.1862069,100.118424 C64.0025616,100.118424 64.6640394,99.4569458 64.6640394,98.6405911 L64.6640394,88.000197 Z" id="Fill-21" fill="#FFFFFF" mask="url(#mask-4)"></path>
        <path d="M107.998581,32.9096158 C109.465182,32.9096158 110.65868,34.1031133 110.65868,35.5697143 C110.65868,37.0363153 109.465182,38.2298128 107.998581,38.2298128 C106.53198,38.2298128 105.338483,37.0363153 105.338483,35.5697143 C105.338483,34.1031133 106.53198,32.9096158 107.998581,32.9096158 M107.998581,40.0032118 C110.443507,40.0032118 112.432079,38.0146404 112.432079,35.5697143 C112.432079,33.1247882 110.443507,31.1362167 107.998581,31.1362167 C105.553655,31.1362167 103.565084,33.1247882 103.565084,35.5697143 C103.565084,38.0146404 105.553655,40.0032118 107.998581,40.0032118" id="Fill-22" fill="#FFFFFF" mask="url(#mask-4)"></path>
        <path d="M121.492433,32.9096158 C122.959034,32.9096158 124.152532,34.1031133 124.152532,35.5697143 C124.152532,37.0363153 122.959034,38.2298128 121.492433,38.2298128 C120.025833,38.2298128 118.832335,37.0363153 118.832335,35.5697143 C118.832335,34.1031133 120.025833,32.9096158 121.492433,32.9096158 M121.492433,40.0032118 C123.93736,40.0032118 125.925931,38.0146404 125.925931,35.5697143 C125.925931,33.1247882 123.93736,31.1362167 121.492433,31.1362167 C119.047507,31.1362167 117.058936,33.1247882 117.058936,35.5697143 C117.058936,38.0146404 119.047507,40.0032118 121.492433,40.0032118" id="Fill-23" fill="#FFFFFF" mask="url(#mask-4)"></path>
        <path d="M134.986877,32.9096158 C136.453478,32.9096158 137.646975,34.1031133 137.646975,35.5697143 C137.646975,37.0363153 136.453478,38.2298128 134.986877,38.2298128 C133.520276,38.2298128 132.326778,37.0363153 132.326778,35.5697143 C132.326778,34.1031133 133.520276,32.9096158 134.986877,32.9096158 M134.986877,40.0032118 C137.431803,40.0032118 139.420374,38.0146404 139.420374,35.5697143 C139.420374,33.1247882 137.431803,31.1362167 134.986877,31.1362167 C132.541951,31.1362167 130.553379,33.1247882 130.553379,35.5697143 C130.553379,38.0146404 132.541951,40.0032118 134.986877,40.0032118" id="Fill-24" fill="#FFFFFF" mask="url(#mask-4)"></path>
        <path d="M106.816315,62.2625025 C108.282916,62.2625025 109.476414,63.456 109.476414,64.922601 C109.476414,66.389202 108.282916,67.5826995 106.816315,67.5826995 C105.349714,67.5826995 104.156217,66.389202 104.156217,64.922601 C104.156217,63.456 105.349714,62.2625025 106.816315,62.2625025 M106.816315,69.3560985 C109.261241,69.3560985 111.249813,67.3675271 111.249813,64.922601 C111.249813,62.4776749 109.261241,60.4891034 106.816315,60.4891034 C104.371389,60.4891034 102.382818,62.4776749 102.382818,64.922601 C102.382818,67.3675271 104.371389,69.3560985 106.816315,69.3560985" id="Fill-25" fill="#FFFFFF" mask="url(#mask-4)"></path>
        <path d="M120.310167,62.2625025 C121.776768,62.2625025 122.970266,63.456 122.970266,64.922601 C122.970266,66.389202 121.776768,67.5826995 120.310167,67.5826995 C118.843567,67.5826995 117.650069,66.389202 117.650069,64.922601 C117.650069,63.456 118.843567,62.2625025 120.310167,62.2625025 M120.310167,69.3560985 C122.755094,69.3560985 124.743665,67.3675271 124.743665,64.922601 C124.743665,62.4776749 122.755094,60.4891034 120.310167,60.4891034 C117.865241,60.4891034 115.87667,62.4776749 115.87667,64.922601 C115.87667,67.3675271 117.865241,69.3560985 120.310167,69.3560985" id="Fill-26" fill="#FFFFFF" mask="url(#mask-4)"></path>
        <path d="M133.804611,62.2625025 C135.271212,62.2625025 136.464709,63.456 136.464709,64.922601 C136.464709,66.389202 135.271212,67.5826995 133.804611,67.5826995 C132.33801,67.5826995 131.144512,66.389202 131.144512,64.922601 C131.144512,63.456 132.33801,62.2625025 133.804611,62.2625025 M133.804611,69.3560985 C136.249537,69.3560985 138.238108,67.3675271 138.238108,64.922601 C138.238108,62.4776749 136.249537,60.4891034 133.804611,60.4891034 C131.359685,60.4891034 129.371113,62.4776749 129.371113,64.922601 C129.371113,67.3675271 131.359685,69.3560985 133.804611,69.3560985" id="Fill-27" fill="#FFFFFF" mask="url(#mask-4)"></path>
        <path d="M107.998581,91.6153892 C109.465182,91.6153892 110.65868,92.8088867 110.65868,94.2754877 C110.65868,95.7420887 109.465182,96.9355862 107.998581,96.9355862 C106.53198,96.9355862 105.338483,95.7420887 105.338483,94.2754877 C105.338483,92.8088867 106.53198,91.6153892 107.998581,91.6153892 M107.998581,98.7089852 C110.443507,98.7089852 112.432079,96.7204138 112.432079,94.2754877 C112.432079,91.8305616 110.443507,89.8419901 107.998581,89.8419901 C105.553655,89.8419901 103.565084,91.8305616 103.565084,94.2754877 C103.565084,96.7204138 105.553655,98.7089852 107.998581,98.7089852" id="Fill-28" fill="#FFFFFF" mask="url(#mask-4)"></path>
        <path d="M146.402601,86.1997833 L137.358857,95.2435271 L133.733438,91.6104236 C133.330877,91.2078621 132.684768,91.2078621 132.282207,91.6104236 C131.879645,92.0135764 131.879645,92.6590936 132.282207,93.0616552 L136.637084,97.416532 C136.834522,97.6139704 137.100532,97.7203744 137.358857,97.7203744 C137.617182,97.7203744 137.883192,97.6216552 138.080631,97.416532 L147.846148,87.6510148 C148.248709,87.2484532 148.248709,86.6023448 147.846148,86.1997833 C147.451271,85.7972217 146.805163,85.7972217 146.402601,86.1997833" id="Fill-29" fill="#FFFFFF" mask="url(#mask-4)"></path>
    </g>
</svg>