
<svg width="182px" height="120px" viewBox="-1 0 182 120" version="1.1" xmlns="http://www.w3.org/2000/svg" xmlns:xlink="http://www.w3.org/1999/xlink">
    <!-- Generator: Sketch 41.2 (35397) - http://www.bohemiancoding.com/sketch -->
    <desc>Created with Sketch.</desc>
    <defs>
        <polygon id="path-1" points="0 120 180.571429 120 180.571429 0 0 0"></polygon>
    </defs>
    <g id="Illustration" stroke="none" stroke-width="1" fill="none" fill-rule="evenodd">
        <polygon id="Fill-1" fill-opacity="0.7" fill="#FFFFFF" points="5.42725714 47.4327429 -0.000171428571 50.0001714 5.42725714 52.2578857 7.71411429 57.7144571 10.0015429 52.2578857 15.4284 50.0001714 10.0015429 47.4327429 7.71411429 42.2858857"></polygon>
        <polygon id="Fill-2" fill-opacity="0.7" fill="#FFFFFF" points="166.571429 25.1428571 164.114857 19.2822857 158.285714 16.8571429 164.114857 14.0994286 166.571429 8.57142857 169.028 14.0994286 174.857143 16.8571429 169.028 19.2822857"></polygon>
        <g id="Group-36">
            <path d="M72.5714286,0 C73.8337143,0 74.8571429,1.02342857 74.8571429,2.28571429 C74.8571429,3.548 73.8337143,4.57142857 72.5714286,4.57142857 C71.3091429,4.57142857 70.2857143,3.548 70.2857143,2.28571429 C70.2857143,1.02342857 71.3091429,0 72.5714286,0 L72.5714286,0 Z" id="Fill-3" fill-opacity="0.7" fill="#FFFFFF"></path>
            <mask id="mask-2" fill="white">
                <use xlink:href="#path-1"></use>
            </mask>
            <g id="Clip-6"></g>
            <polygon id="Fill-5" fill-opacity="0.3" fill="#FFFFFF" mask="url(#mask-2)" points="49.7142857 69.1428571 85.7142857 69.1428571 85.7142857 65.7142857 49.7142857 65.7142857"></polygon>
            <polygon id="Fill-7" fill-opacity="0.3" fill="#FFFFFF" mask="url(#mask-2)" points="49.7142857 78.8571429 63.4285714 78.8571429 63.4285714 75.4285714 49.7142857 75.4285714"></polygon>
            <polygon id="Fill-8" fill-opacity="0.3" fill="#FFFFFF" mask="url(#mask-2)" points="69.1428571 78.8571429 93.7142857 78.8571429 93.7142857 75.4285714 69.1428571 75.4285714"></polygon>
            <polygon id="Fill-9" fill-opacity="0.7" fill="#FFFFFF" mask="url(#mask-2)" points="139.391429 100.418857 132.571429 104.909143 132.571429 95.9291429"></polygon>
            <polygon id="Fill-10" fill-opacity="0.3" fill="#FFFFFF" mask="url(#mask-2)" points="136 77.1428571 142.285714 77.1428571 142.285714 54.8571429 136 54.8571429"></polygon>
            <polygon id="Fill-11" fill-opacity="0.3" fill="#FFFFFF" mask="url(#mask-2)" points="44.8337143 105.714286 41.9154286 100 113.714286 100 113.714286 105.714286"></polygon>
            <polygon id="Fill-12" fill-opacity="0.3" fill="#FFFFFF" mask="url(#mask-2)" points="154.285714 118.285714 157.142857 118.285714 157.142857 78.8571429 154.285714 78.8571429"></polygon>
            <path d="M176.570857,64.5805714 C175.303429,64.5805714 174.276571,63.5531429 174.276571,62.2857143 C174.276571,61.0177143 175.303429,59.9908571 176.570857,59.9908571 C177.838857,59.9908571 178.866857,61.0177143 178.866857,62.2857143 C178.866857,63.5531429 177.838857,64.5805714 176.570857,64.5805714 M176.570857,58.2857143 C174.362857,58.2857143 172.571429,60.0765714 172.571429,62.2857143 C172.571429,64.4948571 174.362857,66.2857143 176.570857,66.2857143 C178.780571,66.2857143 180.571429,64.4948571 180.571429,62.2857143 C180.571429,60.0765714 178.780571,58.2857143 176.570857,58.2857143" id="Fill-13" fill-opacity="0.7" fill="#FFFFFF" mask="url(#mask-2)"></path>
            <polygon id="Fill-14" fill-opacity="0.7" fill="#FFFFFF" mask="url(#mask-2)" points="17.1428571 106.022857 17.1428571 98.0137143 23.284 102.018286"></polygon>
            <polygon id="Fill-15" fill-opacity="0.3" fill="#FFFFFF" mask="url(#mask-2)" points="59.3542857 53.7142857 45.468 53.7142857 52.4988571 44 65.9645714 44"></polygon>
            <polygon id="Fill-16" fill-opacity="0.3" fill="#FFFFFF" mask="url(#mask-2)" points="83.164 53.7142857 69.2777143 53.7142857 76.3085714 44 89.7737143 44"></polygon>
            <polygon id="Fill-17" fill-opacity="0.3" fill="#FFFFFF" mask="url(#mask-2)" points="106.973143 53.7142857 93.0868571 53.7142857 100.117714 44 113.583429 44"></polygon>
            <polygon id="Fill-18" fill-opacity="0.3" fill="#FFFFFF" mask="url(#mask-2)" points="130.782857 53.7142857 116.896571 53.7142857 123.927429 44 137.393143 44"></polygon>
            <polygon id="Fill-19" fill-opacity="0.3" fill="#FFFFFF" mask="url(#mask-2)" points="61.0908571 38.2902857 47.5234286 41.1428571 53.0445714 27.8925714 66.3611429 25.1697143"></polygon>
            <polygon id="Fill-20" fill-opacity="0.3" fill="#FFFFFF" mask="url(#mask-2)" points="84.5474286 33.7862857 71.572 36.0354286 77.0954286 23.2382857 90.0325714 20.4285714"></polygon>
            <polygon id="Fill-21" fill-opacity="0.3" fill="#FFFFFF" mask="url(#mask-2)" points="107.901143 29.192 95.2428571 31.5 101.047429 18.3937143 113.702286 16.024"></polygon>
            <polygon id="Fill-22" fill-opacity="0.3" fill="#FFFFFF" mask="url(#mask-2)" points="132.254286 24.7371429 118.642857 26.6428571 124.342857 13.8097143 137.244571 11.2285714"></polygon>
            <path d="M120,87.4285714 L122.857143,87.4285714 L122.857143,85.7142857 L120,85.7142857 L120,87.4285714 Z M123.714286,84 L119.142857,84 C118.669714,84 118.285714,84.384 118.285714,84.8571429 L118.285714,88.2857143 C118.285714,88.7588571 118.669714,89.1428571 119.142857,89.1428571 L123.714286,89.1428571 C124.187429,89.1428571 124.571429,88.7588571 124.571429,88.2857143 L124.571429,84.8571429 C124.571429,84.384 124.187429,84 123.714286,84 L123.714286,84 Z" id="Fill-23" fill="#FFFFFF" mask="url(#mask-2)"></path>
            <path d="M120,95.4285714 L122.857143,95.4285714 L122.857143,93.7142857 L120,93.7142857 L120,95.4285714 Z M123.714286,92 L119.142857,92 C118.669714,92 118.285714,92.384 118.285714,92.8571429 L118.285714,96.2857143 C118.285714,96.7588571 118.669714,97.1428571 119.142857,97.1428571 L123.714286,97.1428571 C124.187429,97.1428571 124.571429,96.7588571 124.571429,96.2857143 L124.571429,92.8571429 C124.571429,92.384 124.187429,92 123.714286,92 L123.714286,92 Z" id="Fill-24" fill="#FFFFFF" mask="url(#mask-2)"></path>
            <path d="M120,103.428571 L122.857143,103.428571 L122.857143,101.714286 L120,101.714286 L120,103.428571 Z M123.714286,100 L119.142857,100 C118.669714,100 118.285714,100.384 118.285714,100.857143 L118.285714,104.285714 C118.285714,104.758857 118.669714,105.142857 119.142857,105.142857 L123.714286,105.142857 C124.187429,105.142857 124.571429,104.758857 124.571429,104.285714 L124.571429,100.857143 C124.571429,100.384 124.187429,100 123.714286,100 L123.714286,100 Z" id="Fill-25" fill="#FFFFFF" mask="url(#mask-2)"></path>
            <path d="M120,111.428571 L122.857143,111.428571 L122.857143,109.142857 L120,109.142857 L120,111.428571 Z M123.714286,107.428571 L119.142857,107.428571 C118.669714,107.428571 118.285714,107.812571 118.285714,108.285714 L118.285714,112.285714 C118.285714,112.758857 118.669714,113.142857 119.142857,113.142857 L123.714286,113.142857 C124.187429,113.142857 124.571429,112.758857 124.571429,112.285714 L124.571429,108.285714 C124.571429,107.812571 124.187429,107.428571 123.714286,107.428571 L123.714286,107.428571 Z" id="Fill-26" fill="#FFFFFF" mask="url(#mask-2)"></path>
            <path d="M149.714286,87.4285714 L152.571429,87.4285714 L152.571429,85.7142857 L149.714286,85.7142857 L149.714286,87.4285714 Z M153.428571,84 L148.857143,84 C148.384,84 148,84.384 148,84.8571429 L148,88.2857143 C148,88.7588571 148.384,89.1428571 148.857143,89.1428571 L153.428571,89.1428571 C153.901714,89.1428571 154.285714,88.7588571 154.285714,88.2857143 L154.285714,84.8571429 C154.285714,84.384 153.901714,84 153.428571,84 L153.428571,84 Z" id="Fill-27" fill="#FFFFFF" mask="url(#mask-2)"></path>
            <path d="M149.714286,95.4285714 L152.571429,95.4285714 L152.571429,93.7142857 L149.714286,93.7142857 L149.714286,95.4285714 Z M153.428571,92 L148.857143,92 C148.384,92 148,92.384 148,92.8571429 L148,96.2857143 C148,96.7588571 148.384,97.1428571 148.857143,97.1428571 L153.428571,97.1428571 C153.901714,97.1428571 154.285714,96.7588571 154.285714,96.2857143 L154.285714,92.8571429 C154.285714,92.384 153.901714,92 153.428571,92 L153.428571,92 Z" id="Fill-28" fill="#FFFFFF" mask="url(#mask-2)"></path>
            <path d="M149.714286,103.428571 L152.571429,103.428571 L152.571429,101.714286 L149.714286,101.714286 L149.714286,103.428571 Z M153.428571,100 L148.857143,100 C148.384,100 148,100.384 148,100.857143 L148,104.285714 C148,104.758857 148.384,105.142857 148.857143,105.142857 L153.428571,105.142857 C153.901714,105.142857 154.285714,104.758857 154.285714,104.285714 L154.285714,100.857143 C154.285714,100.384 153.901714,100 153.428571,100 L153.428571,100 Z" id="Fill-29" fill="#FFFFFF" mask="url(#mask-2)"></path>
            <path d="M149.714286,111.428571 L152.571429,111.428571 L152.571429,109.142857 L149.714286,109.142857 L149.714286,111.428571 Z M153.428571,107.428571 L148.857143,107.428571 C148.384,107.428571 148,107.812571 148,108.285714 L148,112.285714 C148,112.758857 148.384,113.142857 148.857143,113.142857 L153.428571,113.142857 C153.901714,113.142857 154.285714,112.758857 154.285714,112.285714 L154.285714,108.285714 C154.285714,107.812571 153.901714,107.428571 153.428571,107.428571 L153.428571,107.428571 Z" id="Fill-30" fill="#FFFFFF" mask="url(#mask-2)"></path>
            <path d="M50.2857143,68 L85.1428571,68 L85.1428571,64.5714286 L50.2857143,64.5714286 L50.2857143,68 Z M49.4285714,69.7142857 L86,69.7142857 C86.4731429,69.7142857 86.8571429,69.3302857 86.8571429,68.8571429 L86.8571429,63.7142857 C86.8571429,63.2411429 86.4731429,62.8571429 86,62.8571429 L49.4285714,62.8571429 C48.9554286,62.8571429 48.5714286,63.2411429 48.5714286,63.7142857 L48.5714286,68.8571429 C48.5714286,69.3302857 48.9554286,69.7142857 49.4285714,69.7142857 L49.4285714,69.7142857 Z" id="Fill-31" fill="#FFFFFF" mask="url(#mask-2)"></path>
            <path d="M69.7142857,78.2857143 L93.1428571,78.2857143 L93.1428571,74.2857143 L69.7142857,74.2857143 L69.7142857,78.2857143 Z M94,72.5714286 L68.8571429,72.5714286 C68.384,72.5714286 68,72.9554286 68,73.4285714 L68,79.1428571 C68,79.616 68.384,80 68.8571429,80 L94,80 C94.4731429,80 94.8571429,79.616 94.8571429,79.1428571 L94.8571429,73.4285714 C94.8571429,72.9554286 94.4731429,72.5714286 94,72.5714286 L94,72.5714286 Z" id="Fill-32" fill="#FFFFFF" mask="url(#mask-2)"></path>
            <path d="M50.2857143,78.2857143 L63.4285714,78.2857143 L63.4285714,74.2857143 L50.2857143,74.2857143 L50.2857143,78.2857143 Z M64.2857143,72.5714286 L49.4285714,72.5714286 C48.9554286,72.5714286 48.5714286,72.9554286 48.5714286,73.4285714 L48.5714286,79.1428571 C48.5714286,79.616 48.9554286,80 49.4285714,80 L64.2857143,80 C64.7588571,80 65.1428571,79.616 65.1428571,79.1428571 L65.1428571,73.4285714 C65.1428571,72.9554286 64.7588571,72.5714286 64.2857143,72.5714286 L64.2857143,72.5714286 Z" id="Fill-33" fill="#FFFFFF" mask="url(#mask-2)"></path>
            <path d="M157.142857,117.690286 C157.142857,117.910857 156.769714,118.284571 156.595429,118.285714 L154.377143,118.285714 C153.594857,116.528571 151.858857,115.388 149.875429,115.388 C147.892,115.388 146.156,116.528571 145.373714,118.285714 L127.002857,118.285714 C126.221143,116.528571 124.485143,115.388 122.501714,115.388 C120.518286,115.388 118.782286,116.528571 118,118.285714 L115.914286,118.285714 C115.769714,118.284571 115.428571,117.931429 115.428571,117.690286 L115.428571,79.1862857 C115.428571,79.0485714 115.673143,78.8571429 115.914286,78.8571429 L118.264571,78.8571429 C118.974857,80.5302857 120.574286,81.5782857 122.501714,81.5782857 C124.429143,81.5782857 126.028571,80.5302857 126.738286,78.8571429 L145.984571,78.8571429 C146.694286,80.5302857 148.293714,81.5782857 150.221143,81.5782857 C152.148,81.5782857 153.748,80.5302857 154.458286,78.8571429 L156.595429,78.8571429 C156.868571,78.8571429 157.142857,79.0834286 157.142857,79.1862857 L157.142857,117.690286 L157.142857,117.690286 Z M50.9131429,105.714286 C47.5902857,105.714286 45.0565714,104.824571 43.3822857,103.070286 C41.0068571,100.580571 41.14,97.1142857 41.1428571,97.0371429 L41.1428571,54.8571429 L142.285714,54.8571429 L142.285714,77.1428571 L126.128571,77.1428571 C125.74,77.1428571 125.401143,77.4034286 125.300571,77.7782857 C124.956571,79.0645714 123.884,79.8634286 122.502286,79.8634286 C121.119429,79.8634286 120.046857,79.0645714 119.703429,77.7782857 C119.602857,77.4034286 119.263429,77.1428571 118.875429,77.1428571 L115.914857,77.1428571 C114.722286,77.1428571 113.714857,78.0788571 113.714857,79.1862857 L113.714857,105.714286 L50.9131429,105.714286 Z M34.6611429,41.7034286 C34.6611429,38.6908571 37.1125714,36.2394286 40.1251429,36.2394286 C43.1371429,36.2394286 45.5885714,38.6908571 45.5885714,41.7034286 C45.5885714,44.6262857 43.2794286,47.0137143 40.3902857,47.1531429 C40.3554286,47.1485714 40.3211429,47.1422857 40.2851429,47.1422857 C40.22,47.1422857 40.1565714,47.1514286 40.096,47.1645714 C37.0971429,47.1497143 34.6611429,44.7062857 34.6611429,41.7034286 L34.6611429,41.7034286 Z M38.9045714,33.724 C38.5885714,31.7845714 38.9297143,31.0662857 40.2897143,30.7702857 L51.6011429,28.5554286 L46.8828571,39.3062857 C45.8931429,36.5251429 43.2417143,34.5251429 40.1257143,34.5251429 C39.764,34.5251429 39.412,34.5605714 39.0645714,34.6125714 C38.9937143,34.236 38.9371429,33.9234286 38.9045714,33.724 L38.9045714,33.724 Z M57.436,27.4131429 C60.0034286,26.9102857 62.7308571,26.3771429 65.5662857,25.8217143 L60.28,38.0074286 L48.292,40.3634286 L53.6502857,28.1542857 L57.436,27.4131429 Z M135.202857,12.1474286 C135.681714,12.0457143 136.072,12.008 136.400571,12.0068571 L130.866857,24.1365714 L119.093143,26.4502857 L124.930857,14.1834286 C130.688571,13.0502857 134.506286,12.2948571 135.202857,12.1474286 L135.202857,12.1474286 Z M139.898286,22.3617143 L132.936,23.7302857 L137.969714,12.6948571 C138.048571,12.8542857 138.064,12.9822857 138.064571,12.9822857 L139.898286,22.3617143 Z M69.9194286,36.1125714 L62.3217143,37.6057143 L67.6074286,25.4217143 C70.1022857,24.9331429 72.6697143,24.4308571 75.2811429,23.9194286 L69.9194286,36.1125714 Z M83.5228571,33.44 L71.9691429,35.7108571 L77.3297143,23.5182857 C81.1702857,22.7668571 85.0817143,22.0005714 88.9702857,21.2388571 L83.5228571,33.44 Z M93.4342857,31.492 L85.5817143,33.0348571 L91.028,20.8348571 C93.7497143,20.3011429 96.4497143,19.7725714 99.0965714,19.2531429 L93.4342857,31.492 Z M107.138286,28.7988571 L95.5114286,31.0834286 L101.173714,18.8468571 C105.256571,18.0468571 109.185714,17.2754286 112.833143,16.56 L107.138286,28.7988571 Z M116.998857,26.8617143 L109.220571,28.3902857 L114.915429,16.152 C117.778857,15.5897143 120.444,15.0662857 122.836571,14.5954286 L116.998857,26.8617143 Z M124.368,44 L136.092571,44 L129.554286,53.1428571 L117.829714,53.1428571 L124.368,44 Z M114.389143,44 L122.261143,44 L115.722857,53.1428571 L107.850857,53.1428571 L114.389143,44 Z M100.558286,44 L112.282857,44 L105.744571,53.1428571 L94.02,53.1428571 L100.558286,44 Z M90.58,44 L98.4514286,44 L91.9131429,53.1428571 L84.0417143,53.1428571 L90.58,44 Z M76.7491429,44 L88.4737143,44 L81.9354286,53.1428571 L70.2108571,53.1428571 L76.7491429,44 Z M66.7702857,44 L74.6422857,44 L68.104,53.1428571 L60.232,53.1428571 L66.7702857,44 Z M52.9394286,44 L64.664,44 L58.1257143,53.1428571 L46.4011429,53.1428571 L52.9394286,44 Z M47.1908571,40.4817143 L47.3451429,40.5491429 L47.2057143,40.5765714 C47.2005714,40.5445714 47.1965714,40.5131429 47.1908571,40.4817143 L47.1908571,40.4817143 Z M46.9194286,44 L50.8325714,44 L44.2942857,53.1428571 L41.1428571,53.1428571 L41.1428571,48.8 C43.8451429,48.4142857 46.064,46.5222857 46.9194286,44 L46.9194286,44 Z M142.285714,53.1428571 L131.66,53.1428571 L138.198286,44 L142.285714,44 L142.285714,53.1428571 Z M156.595429,77.1428571 L153.848,77.1428571 C153.46,77.1428571 153.120571,77.4034286 153.02,77.7782857 C152.675429,79.0645714 151.603429,79.8634286 150.221143,79.8634286 C148.838857,79.8634286 147.766286,79.0645714 147.422857,77.7782857 C147.322286,77.4034286 146.982857,77.1428571 146.594857,77.1428571 L144,77.1428571 L144,43.1428571 C144,42.6697143 143.616,42.2857143 143.142857,42.2857143 L47.3965714,42.2857143 L141.910286,23.7131429 L139.770286,12.8222857 C139.74,12.5342857 139.578857,11.6377143 138.724571,10.9765714 C137.830286,10.2851429 136.525714,10.1154286 134.848,10.4697143 C132.231429,11.024 85.204,20.2297143 57.1062857,25.7302857 L39.9428571,29.0914286 C36.5331429,29.832 37.0445714,32.9685714 37.2125714,34 C37.2502857,34.2314286 37.3194286,34.6068571 37.4051429,35.064 C34.7925714,36.1382857 32.9468571,38.7085714 32.9468571,41.7034286 C32.9468571,45.4262857 35.796,48.4937143 39.4285714,48.8457143 L39.4297143,96.9925714 C39.4205714,97.1628571 39.2451429,101.201714 42.1257143,104.236571 C44.1365714,106.354857 47.0925714,107.428571 50.9131429,107.428571 L113.714286,107.428571 L113.714286,117.690286 C113.714286,118.856 114.804,120 115.914286,120 L118.595429,120 C118.974857,120 119.309714,119.750286 119.417143,119.386286 C119.821714,118.02 121.061143,117.102286 122.501143,117.102286 C123.941143,117.102286 125.18,118.02 125.584571,119.386286 C125.692,119.750857 126.026857,120 126.406286,120 L145.968,120 C146.347429,120 146.682286,119.750286 146.789714,119.386286 C147.194286,118.02 148.433714,117.102286 149.873714,117.102286 C151.313714,117.102286 152.553143,118.02 152.957714,119.386286 C153.065143,119.750857 153.4,120 153.779429,120 L156.593143,120 C157.713714,120 158.854857,118.834286 158.854857,117.690286 L158.854857,79.1862857 C158.857143,77.9822857 157.665143,77.1428571 156.595429,77.1428571 L156.595429,77.1428571 Z" id="Fill-34" fill="#FFFFFF" mask="url(#mask-2)"></path>
            <path d="M133.142857,104.451429 L133.142857,94.1594286 L140.869714,99.3057143 L133.142857,104.451429 Z M142.891429,98.5925714 L132.760571,91.8457143 C132.497714,91.6697143 132.159429,91.6542857 131.881143,91.8034286 C131.602857,91.9525714 131.428571,92.2434286 131.428571,92.5588571 L131.428571,106.051429 C131.428571,106.367429 131.602857,106.658286 131.881143,106.806857 C132.008,106.874857 132.146857,106.908571 132.285714,106.908571 C132.452,106.908571 132.617143,106.860571 132.760571,106.764571 L142.891429,100.018286 C143.130286,99.86 143.273714,99.592 143.273714,99.3051429 C143.273714,99.0182857 143.130286,98.7508571 142.891429,98.5925714 L142.891429,98.5925714 Z" id="Fill-35" fill="#FFFFFF" mask="url(#mask-2)"></path>
        </g>
    </g>
</svg>