
<svg width="260px" height="120px" viewBox="50 0 260 120" version="1.1" xmlns="http://www.w3.org/2000/svg" xmlns:xlink="http://www.w3.org/1999/xlink">
    <!-- Generator: Sketch 41.2 (35397) - http://www.bohemiancoding.com/sketch -->
    <desc>Created with Sketch.</desc>
    <defs></defs>
    <g id="Illustration" stroke="none" stroke-width="1" fill="none" fill-rule="evenodd" transform="translate(50.000000, 0.000000)">
        <path d="M139.14,102.6 L112.8,102.6 C113.16,100.5 113.4,96.6 113.4,96.6 L138.6,96.6 C138.6,96.6 138.6,99.528 139.14,102.6 L139.14,102.6 Z M154.8,96.6 L159,96.6 L159,43.2 L162.6,39 L157.8,39 C156.144,39 154.8,40.344 154.8,42 L154.8,96.6 L154.8,96.6 Z" id="Fill-1" fill-opacity="0.3" fill="#FFFFFF"></path>
        <path d="M232.2,19.758 C230.676,19.758 229.44,18.516 229.44,16.998 C229.44,15.468 230.676,14.238 232.2,14.238 C233.724,14.238 234.96,15.468 234.96,16.998 C234.96,18.516 233.724,19.758 232.2,19.758 M232.2,12.18 C229.542,12.18 227.388,14.34 227.388,16.992 C227.388,19.65 229.548,21.804 232.2,21.804 C234.858,21.804 237.012,19.644 237.012,16.992 C237.012,14.34 234.852,12.18 232.2,12.18" id="Fill-3" fill-opacity="0.7" fill="#FFFFFF"></path>
        <path d="M33.582,105.6 C34.8978,105.6 35.964,106.6746 35.964,108 C35.964,109.3254 34.8978,110.4 33.582,110.4 C32.2662,110.4 31.2,109.3254 31.2,108 C31.2,106.6746 32.2662,105.6 33.582,105.6" id="Fill-5" fill-opacity="0.7" fill="#FFFFFF"></path>
        <path d="M87,61.2 C87,62.856 85.656,64.2 84,64.2 L79.2,64.2 C79.2,64.2 82.968,63.78 82.968,60.84 C82.968,57.9 83.1,38.316 83.1,34.848 C83.1,31.38 79.2,30.6 79.2,30.6 L84,30.6 C85.656,30.6 87,31.944 87,33.6 L87,61.2 Z" id="Fill-7" fill-opacity="0.3" fill="#FFFFFF"></path>
        <polyline id="Fill-9" fill-opacity="0.6" fill="#FFFFFF" points="54.27 43.92 58.386 55.248 69.582 43.968 65.298 39.9 58.674 39.888"></polyline>
        <path d="M14.4,59.4 L9.6,59.4 L9.6,54.6 C9.6,54.27 9.33,54 9,54 L6,54 C5.67,54 5.4,54.27 5.4,54.6 L5.4,59.4 L0.6,59.4 C0.27,59.4 0,59.67 0,60 L0,63 C0,63.33 0.27,63.6 0.6,63.6 L5.4,63.6 L5.4,68.4 C5.4,68.73 5.67,69 6,69 L9,69 C9.33,69 9.6,68.73 9.6,68.4 L9.6,63.6 L14.4,63.6 C14.73,63.6 15,63.33 15,63 L15,60 C15,59.67 14.73,59.4 14.4,59.4 M27,7.2 L25.932,4.656 L23.4,3.6 L25.932,2.4 L27,0 L28.068,2.4 L30.6,3.6 L28.068,4.656 M251.1,69 L248.52,62.844 L242.4,60.3 L248.52,57.402 L251.1,51.6 L253.68,57.402 L259.8,60.3 L253.68,62.844" id="Fill-11" fill-opacity="0.7" fill="#FFFFFF"></path>
        <path d="M171,84.6 C171,84.93 170.73,85.2 170.4,85.2 L167.4,85.2 C167.07,85.2 166.8,84.93 166.8,84.6 L166.8,52.2 C166.8,51.87 167.07,51.6 167.4,51.6 L170.4,51.6 C170.73,51.6 171,51.87 171,52.2 L171,84.6 Z" id="Fill-13" fill-opacity="0.3" fill="#FFFFFF"></path>
        <path d="M187.2,115.5 C186.702,115.5 186.3,115.098 186.3,114.6 C186.3,114.102 186.702,113.7 187.2,113.7 C187.698,113.7 188.1,114.102 188.1,114.6 C188.1,115.098 187.698,115.5 187.2,115.5 L187.2,115.5 Z M187.2,111.9 C185.712,111.9 184.5,113.112 184.5,114.6 C184.5,116.088 185.712,117.3 187.2,117.3 C188.688,117.3 189.9,116.088 189.9,114.6 C189.9,113.112 188.688,111.9 187.2,111.9 L187.2,111.9 Z M164.4,109.2 L210.6,109.2 L210.6,47.4 L164.4,47.4 L164.4,109.2 Z M163.5,111 L211.5,111 C211.998,111 212.4,110.598 212.4,110.1 L212.4,46.5 C212.4,46.002 211.998,45.6 211.5,45.6 L163.5,45.6 C163.002,45.6 162.6,46.002 162.6,46.5 L162.6,110.1 C162.6,110.598 163.002,111 163.5,111 L163.5,111 Z" id="Fill-15" fill="#FFFFFF"></path>
        <path d="M117,44.4 L133.8,44.4 C134.298,44.4 134.7,43.998 134.7,43.5 C134.7,43.002 134.298,42.6 133.8,42.6 L117,42.6 C116.502,42.6 116.1,43.002 116.1,43.5 C116.1,43.998 116.502,44.4 117,44.4 L117,44.4 Z M117,37.8 L148.8,37.8 C149.298,37.8 149.7,37.398 149.7,36.9 C149.7,36.402 149.298,36 148.8,36 L117,36 C116.502,36 116.1,36.402 116.1,36.9 C116.1,37.398 116.502,37.8 117,37.8 L117,37.8 Z M155.4,29.4 L117,29.4 C116.502,29.4 116.1,29.802 116.1,30.3 C116.1,30.798 116.502,31.2 117,31.2 L155.4,31.2 C155.898,31.2 156.3,30.798 156.3,30.3 C156.3,29.802 155.898,29.4 155.4,29.4 L155.4,29.4 Z M127.2,71.4 L148.2,71.4 L148.2,58.8 L127.2,58.8 L127.2,71.4 Z M148.5,57 L126.9,57 C126.072,57 125.4,57.672 125.4,58.5 L125.4,71.7 C125.4,72.528 126.072,73.2 126.9,73.2 L148.5,73.2 C149.328,73.2 150,72.528 150,71.7 L150,58.5 C150,57.672 149.328,57 148.5,57 L148.5,57 Z M99,71.4 L120,71.4 L120,58.8 L99,58.8 L99,71.4 Z M120.3,57 L98.7,57 C97.872,57 97.2,57.672 97.2,58.5 L97.2,71.7 C97.2,72.528 97.872,73.2 98.7,73.2 L120.3,73.2 C121.128,73.2 121.8,72.528 121.8,71.7 L121.8,58.5 C121.8,57.672 121.128,57 120.3,57 L120.3,57 Z M198,93.6 L171,93.6 C170.502,93.6 170.1,94.002 170.1,94.5 C170.1,94.998 170.502,95.4 171,95.4 L198,95.4 C198.498,95.4 198.9,94.998 198.9,94.5 C198.9,94.002 198.498,93.6 198,93.6 L198,93.6 Z M204,89.4 L171,89.4 C170.502,89.4 170.1,89.802 170.1,90.3 C170.1,90.798 170.502,91.2 171,91.2 L204,91.2 C204.498,91.2 204.9,90.798 204.9,90.3 C204.9,89.802 204.498,89.4 204,89.4 L204,89.4 Z" id="Fill-17" fill="#FFFFFF"></path>
        <path d="M35.4,35.328 C35.4,33.918 36.36,32.4 37.92,32.4 L79.368,32.4 C80.826,32.4 82.2,33.822 82.2,35.328 L82.2,59.94 C82.2,61.476 80.76,62.4 79.368,62.4 L72.9,62.4 C72.402,62.4 72,62.802 72,63.3 L72,67.77 L64.116,62.55 C63.966,62.454 63.792,62.4 63.618,62.4 L37.92,62.4 C36.42,62.4 35.4,61.41 35.4,59.94 L35.4,35.328 Z M55.8,9.3 C55.8,6.48 58.08,4.2 60.9,4.2 L188.7,4.2 C191.52,4.2 193.8,6.48 193.8,9.3 L193.8,39 L189,39 L189,12.402 C189.078,12.018 189.21,10.998 188.556,10.134 C187.986,9.354 187.038,8.994 185.736,8.994 L64.032,8.994 C62.652,8.994 61.872,9.534 61.452,9.978 C60.552,10.95 60.576,12.228 60.594,12.522 L60.594,30.6 L55.794,30.6 L55.794,9.3 L55.8,9.3 Z M215.4,42.3 L215.4,116.7 C215.4,117.528 214.728,118.2 213.9,118.2 L161.1,118.2 C160.272,118.2 159.6,117.528 159.6,116.7 L159.6,42.3 C159.6,41.472 160.272,40.8 161.1,40.8 L213.9,40.8 C214.728,40.8 215.4,41.472 215.4,42.3 L215.4,42.3 Z M62.4,12.45 C62.4,12.45 62.352,11.682 62.784,11.22 C63.048,10.944 63.468,10.8 64.044,10.8 L185.724,10.8 C186.42,10.8 186.906,10.944 187.104,11.208 C187.362,11.526 187.236,12.048 187.236,12.048 L187.2,12.168 L187.2,18 L62.4,18 L62.4,12.45 Z M84,59.94 L84,58.8 L91.2,58.8 L91.2,71.4 L70.2,71.4 L70.2,68.736 L72.402,70.194 C72.552,70.266 72.726,70.314 72.9,70.314 C73.044,70.314 73.2,70.278 73.32,70.206 C73.62,70.05 73.8,69.75 73.8,69.414 L73.8,64.2 L79.368,64.2 C81.966,64.2 84,62.328 84,59.94 L84,59.94 Z M79.368,30.6 L70.2,30.6 L70.2,26.4 L108.6,26.4 L108.6,48.6 L84,48.6 L84,35.328 C84,32.808 81.84,30.6 79.368,30.6 L79.368,30.6 Z M157.8,42.3 L157.8,77.4 L62.4,77.4 L62.4,64.2 L63.348,64.2 L68.4,67.548 L68.4,71.7 C68.4,72.528 69.072,73.2 69.9,73.2 L91.5,73.2 C92.328,73.2 93,72.528 93,71.7 L93,58.5 C93,57.672 92.328,57 91.5,57 L84,57 L84,50.4 L108.9,50.4 C109.728,50.4 110.4,49.728 110.4,48.9 L110.4,26.1 C110.4,25.272 109.728,24.6 108.9,24.6 L69.9,24.6 C69.072,24.6 68.4,25.272 68.4,26.1 L68.4,30.6 L62.4,30.6 L62.4,19.8 L187.2,19.8 L187.2,39 L161.1,39 C159.282,39 157.8,40.482 157.8,42.3 L157.8,42.3 Z M140.4,94.8 L90.6,94.8 L90.6,89.7 C90.6,89.202 90.198,88.8 89.7,88.8 L67.5,88.8 C67.002,88.8 66.6,89.202 66.6,89.7 L66.6,94.8 L60.9,94.8 C58.08,94.8 55.8,92.52 55.8,89.7 L55.8,85.2 L157.8,85.2 L157.8,94.8 L140.4,94.8 Z M141.06,109.8 L110.862,109.8 C111.702,107.64 113.22,102.912 113.352,96.6 L138.576,96.6 C138.714,102.912 140.226,107.64 141.066,109.8 L141.06,109.8 Z M102,114.6 L150,114.6 L150,111.6 L102,111.6 L102,114.6 Z M87.528,104.4 L84,107.928 L84,104.4 L87.528,104.4 Z M88.8,102.6 L83.1,102.6 C82.602,102.6 82.2,103.002 82.2,103.5 L82.2,109.2 L68.4,109.2 L68.4,90.6 L88.8,90.6 L88.8,102.6 Z M157.8,79.2 L157.8,83.4 L55.8,83.4 L55.8,64.2 L60.6,64.2 L60.6,79.2 L157.8,79.2 Z M37.92,64.2 L54,64.2 L54,89.7 C54,93.504 57.096,96.6 60.9,96.6 L66.6,96.6 L66.6,110.1 C66.6,110.598 67.002,111 67.5,111 L83.1,111 C83.22,111 83.328,110.976 83.43,110.94 L83.442,110.94 C83.562,110.88 83.652,110.82 83.742,110.736 L90.342,104.136 C90.42,104.052 90.486,103.956 90.534,103.836 C90.546,103.728 90.594,103.614 90.594,103.5 L90.594,96.6 L111.558,96.6 C111.402,103.356 109.554,108.27 108.906,109.8 L101.1,109.8 C100.602,109.8 100.2,110.202 100.2,110.7 L100.2,115.5 C100.2,115.998 100.602,116.4 101.1,116.4 L150.9,116.4 C151.398,116.4 151.8,115.998 151.8,115.5 L151.8,110.7 C151.8,110.202 151.398,109.8 150.9,109.8 L143.028,109.8 C142.392,108.288 140.568,103.38 140.418,96.6 L157.8,96.6 L157.8,116.7 C157.8,118.518 159.282,120 161.1,120 L213.9,120 C215.718,120 217.2,118.518 217.2,116.7 L217.2,42.3 C217.2,40.482 215.718,39 213.9,39 L195.6,39 L195.6,9.3 C195.6,5.496 192.504,2.4 188.7,2.4 L60.9,2.4 C57.096,2.4 54,5.496 54,9.3 L54,30.6 L37.92,30.6 C35.538,30.6 33.6,32.724 33.6,35.328 L33.6,59.94 C33.6,62.4 35.418,64.2 37.92,64.2 L37.92,64.2 Z" id="Fill-19" fill="#FFFFFF"></path>
        <path d="M171.618,83.4 L203.418,83.4 L203.418,53.4 L171.618,53.4 L171.618,83.4 Z M204.318,51.6 L170.718,51.6 C170.226,51.6 169.818,52.002 169.818,52.5 L169.818,84.3 C169.818,84.798 170.226,85.2 170.718,85.2 L204.318,85.2 C204.822,85.2 205.218,84.798 205.218,84.3 L205.218,52.5 C205.218,52.002 204.822,51.6 204.318,51.6 L204.318,51.6 Z M60.906,51.516 L63.408,45.06 L63.426,45 L67.386,45 L60.906,51.516 Z M53.646,45 L53.646,45.048 L56.124,51.618 L49.824,45 L53.634,45 L53.646,45 Z M52.146,41.28 L53.298,43.2 L49.998,43.2 L52.14,41.28 L52.146,41.28 Z M54.726,42.06 L53.946,40.788 L56.202,40.788 L54.714,42.066 L54.726,42.06 Z M62.508,42.12 L61.032,40.8 L63.492,40.8 L62.508,42.12 Z M67.386,43.2 L63.942,43.2 L65.382,41.256 L67.41,43.2 L67.386,43.2 Z M56.142,43.2 L58.62,41.082 L61.002,43.2 L56.142,43.2 Z M58.482,52.752 L55.542,45 L61.482,45 L58.464,52.758 L58.482,52.752 Z M47.082,44.772 L57.732,56.022 C57.9,56.202 58.134,56.4 58.374,56.4 C58.614,56.4 58.854,56.208 58.992,56.04 L70.152,44.736 C70.344,44.556 70.434,44.292 70.416,44.04 C70.416,43.8 70.332,43.56 70.146,43.38 L65.862,39.252 C65.682,39.072 65.418,38.982 65.16,39.012 L58.74,39.012 C58.68,38.994 58.608,38.994 58.536,39.012 L52.5,39 L52.47,39 C52.206,38.958 51.93,39.036 51.738,39.216 L47.13,43.356 C46.932,43.536 46.842,43.776 46.842,44.016 C46.812,44.292 46.902,44.574 47.082,44.766 L47.082,44.772 Z" id="Fill-21" fill="#FFFFFF"></path>
    </g>
</svg>